<svg height="512pt" viewBox="0 0 512 512.00079" width="512pt" xmlns="http://www.w3.org/2000/svg"><path d="m512 49.085938c0-26.890626-21.738281-49.085938-49.085938-49.085938-8.414062 0-16.503906 2.113281-23.671874 6.074219l66.683593 66.683593c3.960938-7.167968 6.074219-15.253906 6.074219-23.671874zm0 0"/><path d="m.957031 491.738281c-2.066406 5.507813-.722656 11.714844 3.4375 15.875 4.4375 4.4375 10.746094 5.359375 15.875 3.4375l119.492188-44.8125-93.996094-93.992187zm0 0"/><path d="m411.207031 20.464844c-.636719-.640625-4.367187-4.394532-10.605469-4.394532h-61.5625c-19.023437 0-36.910156 7.410157-50.363281 20.863282l-111.765625 111.765625c-5.710937 5.710937-6.238281 15.011719-.800781 20.988281 5.804687 6.375 15.683594 6.550781 21.714844.523438 0 0 .003906-.003907.003906-.007813l112.058594-112.058594c7.789062-7.785156 18.140625-12.074219 29.152343-12.074219h25.347657l-301.183594 301.1875 101.472656 101.46875 326.789063-326.789062c5.859375-5.859375 5.859375-15.355469 0-21.214844zm0 0"/></svg>