<?xml version="1.0" encoding="UTF-8" standalone="no"?>
<!-- Created with Inkscape (http://www.inkscape.org/) -->

<svg
   xmlns:dc="http://purl.org/dc/elements/1.1/"
   xmlns:cc="http://creativecommons.org/ns#"
   xmlns:rdf="http://www.w3.org/1999/02/22-rdf-syntax-ns#"
   xmlns:svg="http://www.w3.org/2000/svg"
   xmlns="http://www.w3.org/2000/svg"
   xmlns:sodipodi="http://sodipodi.sourceforge.net/DTD/sodipodi-0.dtd"
   xmlns:inkscape="http://www.inkscape.org/namespaces/inkscape"
   version="1.1"
   id="svg2"
   xml:space="preserve"
   width="256.89334"
   height="60"
   viewBox="0 0 256.89334 60"
   sodipodi:docname="logo_.svg"
   inkscape:version="0.92.3 (2405546, 2018-03-11)"><metadata
     id="metadata8"><rdf:RDF><cc:Work
         rdf:about=""><dc:format>image/svg+xml</dc:format><dc:type
           rdf:resource="http://purl.org/dc/dcmitype/StillImage" /><dc:title></dc:title></cc:Work></rdf:RDF></metadata><defs
     id="defs6" /><sodipodi:namedview
     pagecolor="#ffffff"
     bordercolor="#666666"
     borderopacity="1"
     objecttolerance="10"
     gridtolerance="10"
     guidetolerance="10"
     inkscape:pageopacity="0"
     inkscape:pageshadow="2"
     inkscape:window-width="1366"
     inkscape:window-height="713"
     id="namedview4"
     showgrid="false"
     inkscape:zoom="5.1967778"
     inkscape:cx="108.23393"
     inkscape:cy="13.92181"
     inkscape:window-x="0"
     inkscape:window-y="27"
     inkscape:window-maximized="1"
     inkscape:current-layer="g10" /><g
     id="g10"
     inkscape:groupmode="layer"
     inkscape:label="ink_ext_XXXXXX"
     transform="matrix(1.3333333,0,0,-1.3333333,0,60)"><g
       id="g12"
       transform="matrix(0.1,0,0,0.1,-6.2499999e-8,-37.962523)"><path
         d="m 92.1602,683.617 c -0.8516,1.418 -2.0118,1.985 -0.7227,4.067 1.3164,2.109 0.9375,2.832 0.7227,4.726 -0.1563,1.871 -1.2891,4.551 -2.0118,5.43 0,0 -1.6796,-7.141 -2.2187,-10.059 -0.5938,-2.933 -0.75,-3.011 -0.3789,-4.297 0.3789,-1.293 1.1055,-5.043 0.8203,-5.55 l 3.3477,3.41 c 0,0 1.3007,0.91 0.4414,2.273 z m 15.5858,-8.418 c -2.199,-0.679 -5.672,-4.156 -8.4882,-6.738 -2.9375,-2.613 -6.8476,-5.113 -6.8476,-5.113 0,0 -1.3516,-2.071 -1.3516,-3.75 0,-1.723 -0.5352,-3.914 0,-6.098 0.5664,-2.215 2.418,-7.148 1.9609,-9.273 -0.4882,-2.09 -2.9804,-1.614 -2.9804,-1.614 0,0 0,0 0.4843,-1.289 0.4414,-1.289 2.7344,-19.609 2.6719,-20.976 -0.0781,-1.356 1.0235,-6.426 0.832,-8.61 -0.1718,-2.183 -0.1718,-12.554 -1.496,-16.074 -1.2852,-3.508 1.7773,-17.316 0.5859,-21.023 -1.1914,-3.739 0.7383,-5.844 0.8203,-9.868 0.0898,-3.96 0.2813,-7.425 -0.6797,-9.742 -0.8828,-2.265 -0.8476,-16.039 -0.7265,-16.972 0.0976,-0.844 -0.5274,-5.649 -0.5274,-6.782 0,-1.148 0.125,-4.023 0.4063,-5.214 0.4062,-1.247 0.2851,-3.5 0.8476,-4.243 0.5977,-0.722 1.2422,-1.183 4.211,-2.359 2.9532,-1.098 4.4452,-2.672 4.5432,-4.117 0.062,-1.473 -1.102,-1.961 -8.0745,-2.117 -6.9492,-0.157 -15.4805,1.296 -15.4805,1.296 l -0.0781,-1.035 c -2.0586,-0.105 -9.5664,0.289 -9.5664,0.289 -0.5391,1.071 -0.6953,7.442 -0.2539,8.481 0.4687,1.051 -0.1875,2.558 -0.9102,4.855 -0.7226,2.266 -1.6679,5.297 -1.2109,6.508 0.4883,1.207 0.3438,3.594 0.1758,6.031 -0.1758,2.563 0.5664,9.789 1.9453,13.461 1.4141,3.653 2.7656,18.043 2.6836,20.774 -0.0899,2.761 1.1055,15.539 1.1055,16.168 0,0.644 0.75,5.375 -0.2227,6.883 -1.0391,1.57 -1.3516,4.414 -2.1523,7.148 -0.8477,2.797 -2.2657,6.926 -4.7618,9.602 -2.4804,2.683 -3.5976,7.238 -3.8789,6.015 -0.2539,-1.223 -3.1562,-7.777 -3.6328,-9.851 -0.4375,-2.012 -0.7812,-12.821 -1.289,-15.727 -0.4024,-2.906 -6.8477,-13.766 -7.3164,-14.547 -0.4102,-0.82 -2.6563,-7.89 -2.8438,-10.312 -0.1758,-2.418 -8.4531,-23.125 -8.9609,-25.094 -0.5938,-1.957 -4.3164,-11.074 -4.1016,-12.016 0.1914,-0.976 1.6875,-1.793 1.2891,-2.672 -0.375,-0.898 -1.2227,-3.171 -0.9102,-4.398 0.2852,-1.227 2.6875,-7.164 2.6875,-7.164 0,-4.145 -4.1016,-5.25 -4.1016,-5.25 -5.8437,-0.715 -13.3203,4.605 -14.6093,7.766 -1.2578,3.167 -2.043,6.597 -2.2188,8.148 -0.1836,1.543 -1.4726,5.109 -2.7929,7.848 -1.3047,2.793 -1.0235,4.394 -0.711,5.859 0.2539,1.461 0.5547,2.621 0.1445,4.57 -0.3593,1.95 6.3946,17.188 6.8672,18.844 0.4688,1.602 2.2149,7.473 2.2149,7.473 0,1.621 1.0039,5.64 2.0429,6.601 1.004,0.864 5.0743,6.864 5.9688,8.516 0.9727,1.601 1.668,2.746 0.2227,5.012 -1.4766,2.246 -0.629,11.152 0.125,12.519 0.7226,1.367 0.3437,3.004 -0.2227,4.199 -0.5313,1.223 -0.375,9.52 0.4687,13.418 0.8204,3.864 0.379,4.149 0,6.094 -0.371,1.914 0,15.367 0,15.367 l -1.5664,1.602 c -6.3828,6.234 -12.5078,5.207 -14.5781,7.715 -2,2.539 1.4453,11.304 2.7774,14.054 1.2578,2.766 3.8164,13.27 4.9804,15.051 1.0703,1.766 3.2852,9.5 4.4141,11.36 1.1016,1.847 2.9726,9.398 4.3516,12.242 1.3867,2.883 0.664,3.789 0.1875,6.433 -0.4688,2.7 -3.5,5.114 -3.4375,8.223 0.125,3.074 -1.2735,3.137 -3.1563,4.777 -1.8555,1.61 -14.31641,15.176 -15.07031,17.137 -0.73828,1.914 -4.01953,5.223 -6.50391,10.098 -2.496093,4.855 -2.312499,14.511 -1.539061,16.855 0.722661,2.356 2.578121,17.469 2.578121,17.469 0,1.469 5.78125,0.449 5.78125,0.449 0.15625,0.863 4.36721,6.047 4.46091,7.527 0.1094,1.446 1.3985,4.782 0.5196,5.657 -0.9453,0.918 -0.9453,7.226 -0.9453,8.39 0,1.106 -0.4727,2.84 -0.5313,3.981 -0.1445,1.129 -0.8672,3.246 -0.8672,3.246 -0.375,2.844 1.8242,2.262 1.8242,2.262 0.7696,0.101 1.5235,-3.153 1.8086,-4.313 0.2813,-1.133 0.5352,-2.734 0.5352,-2.734 0,0 0.3711,0.047 0.2461,0.777 -0.0586,0.762 -0.3438,3.844 -0.3438,4.582 0,0.723 0.4688,2.844 0.4688,2.844 -0.2813,2.984 1.3984,2.89 1.3984,2.89 1.2891,0 1.3867,-1.925 1.3867,-2.234 l 0.0586,-3.5 0.1446,-2.367 0.1406,-2.082 c 0,0 0.6601,2.805 0.4258,3.797 -0.3008,0.965 0.6562,3.234 0.6562,3.234 l 0.0977,3.567 c 0,1.488 1.539,1.07 1.539,1.07 1.3828,0.183 1.3203,-2.68 1.3203,-3.086 l -0.1875,-3.035 c 0,-0.313 -0.1445,-1.008 -0.1445,-1.75 0,-0.75 0.207,-3.758 0.207,-3.758 l 0.3907,-0.039 c -0.2032,2.332 0.4687,6.969 0.4687,6.969 0.2422,2.922 2.2031,2.269 2.2031,2.269 1.2891,-0.172 1.0079,-4.601 1.0079,-4.601 0,0 -0.3789,-3.282 -0.5664,-4.204 -0.1563,-0.855 0.7695,-5.972 1.3984,-6.707 0.6601,-0.769 2.1367,-1.218 2.7344,0.821 0.6914,2.035 4.7578,2.519 4.7578,2.519 2.3125,0 1.5898,-1.648 1.5898,-1.648 -0.8828,-0.164 -2.7539,-2.59 -3.6953,-3.578 -0.9141,-0.961 -1.6016,-3.371 -2.6523,-3.821 -0.9766,-0.359 -1.4453,-0.894 -2.0743,-1.703 -0.6601,-0.8 -3.0937,-2.304 -3.0937,-2.304 -2.1875,-1.426 -5.8164,-9.481 -5.6914,-10.782 0.2344,-1.297 -0.8633,-14.797 -1.6641,-17.027 -0.6601,-2.277 0,-5.5 0.9414,-6.293 0.9571,-0.793 2.2461,-6.582 2.2461,-6.582 0,0 1.8242,-2.578 3.0938,-3.66 1.2617,-1.172 8.7695,-7.918 10.0898,-8.711 1.2578,-0.789 3.8477,-0.324 4.3828,0.469 0.586,0.84 6.9141,-0.793 8.2813,-1.102 1.2578,-0.344 6.7109,-1.48 6.7109,-1.48 l 0.2149,1.48 c -0.2149,2.086 -1.9766,3.711 -1.9766,3.711 0,0 -0.9258,0.613 -2.7812,2.223 -1.8555,1.613 -0.7227,5.129 -0.7227,5.129 -0.5664,2.886 0.7227,6.921 0.7227,6.921 2.7812,9.18 11.3906,9.348 11.3906,9.348 1.7929,1.414 6.539,0.137 6.539,0.137 7.5391,0 9.5977,-10.461 9.5977,-10.461 0,0 0,-1.578 0,-2.402 0,-0.778 0.7227,-3.543 0.7227,-3.543 0.6289,-3.211 -0.7227,-6.645 -0.8672,-7.149 -0.0899,-0.469 -0.8125,-1.301 -1.2539,-2.812 -0.4727,-1.555 -1.7735,-2.2 -1.7735,-2.2 -0.7539,-1.949 5.0586,-5.546 7.4766,-5.929 2.4375,-0.379 11.957,-4.731 12.9805,-5.438 1.0039,-0.746 4.6328,-1.476 4.6328,-1.476 2.2934,0.41 3.0624,-7.196 3.3164,-9.028 0.312,-1.769 1.379,-3.617 1.289,-5.992 -0.066,-2.351 0.375,-3.152 1.035,-4.449 0.676,-1.297 4.18,-12.824 4.18,-14.563 0,-1.687 1.476,-2.441 2.422,-8.375 0.91,-5.929 -1.102,-11.457 -3.348,-12.074"
         style="fill:#ec303b;fill-opacity:1;fill-rule:nonzero;stroke:none"
         id="path14"
         inkscape:connector-curvature="0" /><path
         d="m 1875.26,731.984 c 0,0 -2.8,0.657 -2.38,2.45 0.47,1.746 -1.81,1.746 -2.17,0.246 0,0 -3.28,-1.606 -2.69,1.379 0,0 2.26,2.836 1.51,3.871 0,0 -0.86,2.258 -1.51,-0.137 0,0 -2.82,-0.758 -1.33,3.297 0,0 -2.56,-0.582 0.47,1.215 0,0 -5.47,-0.332 2.11,5.531 0,0 0.75,1.344 0,2.98 0,0 -0.8,5.821 1.61,5.821 0,0 1.06,7.015 3.36,7.015 0,0 2.98,9.887 11.94,10.188 0,0 3.78,-0.172 3.78,-0.906 0,0 8.12,-1.512 8.12,-4.036 0,0 6.65,-5.375 5.94,-8.234 0,0 2.39,-2.691 1.46,-5.824 0,0 2.7,-1.61 3.96,-1.192 0,0 -2.06,-0.308 -3.03,-0.171 0,0 0.25,-4.477 1.59,-4.579 0,0 4.25,-4.093 1.13,-4.093 0,0 1.36,-3.879 -1.27,-3.27 0,0 0.46,-4.5 -1.35,-4.5 0,0 0.37,-4.781 -0.58,-5.219 l 0.48,-1.05 7.51,-2.703 c 0,0 6.9,-2.223 10.41,-17.497 l -1.18,-1.925 c 0,0 1.97,-21.981 1.48,-23.633 0,0 -0.54,-5.711 -0.11,-8.356 0,0 1.16,-13.035 0.26,-16.336 0,0 -1.31,-13.75 -0.87,-14.761 0,0 -0.17,-5.375 0.31,-6.903 l 0.3,-7.793 c 0,0 0.26,-4.484 -1.96,-5.824 0,0 -0.77,-2.117 -2,-1.656 0,0 1.49,-10.43 0.89,-14.332 0,0 1.39,-11.938 0.6,-13.942 l 0.41,-7 c 0,0 1.28,-4.539 1.87,-4.539 0,0 2.88,-2.039 -6.82,-2.328 0,0 3.48,-9.289 2.75,-17.8 0,0 1.53,0.863 1.53,-2.278 0,0 3.48,-11.48 4.09,-13.73 0,0 2.73,-14.52 -1.97,-18.563 0,0 -12.82,-11.332 -12.09,1.235 0,0 0.32,13.464 0.94,14.492 l 0.82,2.551 c 0,0 0.51,2.05 -0.2,2.859 0,0 -1.71,1.914 -0.79,5.187 0,0 -3.03,9.11 -6.32,10.325 0,0 -6.2,3.324 -7.84,12.539 0,0 -7.13,-0.856 -8.01,-0.125 0,0 3.91,-16.77 1.5,-20.496 0,0 1.16,-27.332 1.46,-29.59 0,0 4.43,-10.641 1.09,-11.949 0,0 -5.3,-0.891 -6.09,-1.805 0,0 -13.98,-0.785 -14.92,1.492 0,0 -4.19,0.313 2.23,4.316 0,0 4.58,1.559 4.41,3.598 0,0 0.6,2.703 4.1,4.793 0,0 1.19,4.793 0.35,7.469 0,0 -5.52,15.41 -4.9,17.015 0,0 -7.09,22.051 -4.39,26.942 l -0.1,2.855 c 0,0 -4.45,0.309 -4.45,2.981 0,0 -0.99,14.828 -3.11,16.609 0,0 -4.86,18.543 -3.19,22.875 0,0 -2.1,-1.5 -2.1,-0.73 0,0 -2.73,-2.672 -3.46,-1.492 0,0 -3.94,-9.434 -3.02,-0.907 0,0 -2.75,0.598 -3.65,2.242 l -0.76,0.481 c 0,0 -4.37,-4.52 -3.34,1.195 0,0 0.49,4.438 1.39,5.207 0,0 -2.6,0.602 -0.77,3.289 0,0 -0.45,5.86 4.13,6.575 0,0 1.51,-0.618 1.14,3.871 0,0 -0.56,13.906 -2.37,15.687 0,0 -2.9,8.125 -2.9,11.688 0,0 -1.83,8.398 -1.07,9.871 0,0 -3.64,9.289 -3.75,11.066 l -1.97,2.246 c 0,0 -1.48,-8.547 -2.42,-9.133 0,0 3.91,-10.472 3.32,-11.949 0,0 2.24,-22.863 -0.57,-23.176 0,0 2.57,-26.168 -4.39,-33.511 0,0 -6.6,-20.051 -6.19,-23.309 0,0 0.76,-19.762 -1.05,-20.785 0,0 3.3,-5.551 3.3,-7.051 0,0 11.74,-6.273 10.25,-11.219 l -0.83,-2.515 c 0,0 1.35,-2.125 -0.35,-4.488 l -2.42,-4.336 c 0,0 3.91,-8.989 -0.5,-16.93 0,0 -1.14,-4.336 -4.75,-5.227 0,0 -4.43,-0.902 -5.17,1.973 l -0.41,5.512 c 0,0 -2.11,8.715 -0.93,10.441 l -2.86,3.035 c 0,0 -1.22,-2.57 -3.09,-2.383 l -0.13,-8.703 c 0,0 5.71,-9.875 2.18,-12.117 0,0 0.35,-3.293 -1.71,-3.805 l -0.47,-0.066 c -2.56,-0.152 -11.62,-1.023 -13.31,-0.152 0,0 -2.06,-0.274 -2.06,1.937 l 0.44,3.301 c 0,0 -1.51,3.711 -2.27,4.488 0,0 -1.9,7.348 0.5,10.012 l 0.43,9.102 c 0,0 0.45,26.039 2.6,28.421 0,0 -5.91,7.379 -5.6,9.743 0,0 -4.71,4.625 -4.71,7.171 0,0 -1.98,10.161 -2.14,11.665 0,0 -6.05,11.781 -6.05,14.656 0,0 -0.73,14.527 1.29,16.133 0,0 2.06,11.336 1.14,12.109 0,0 -1.44,0.477 -1.44,1.215 l -0.37,20.332 c 0,0 -0.19,17.195 0.54,18.676 0,0 -4.32,-23.149 -5.85,-23.766 0,0 -3.16,-12.691 -2.25,-15.41 0,0 2.79,-4.32 1.68,-7.469 0,0 0,-7.738 0,-8.633 0,0 -1.34,-3.906 -3.32,0.739 l -0.15,3.73 c 0,0 -1.65,1.801 -1.3,-2.723 l -0.17,-1.468 c 0,0 2.23,-1.047 1.47,-2.258 0,0 4.82,-2.098 1.79,-2.985 0,0 2.15,-2.515 -2.19,-2.105 0,0 -5.18,3.508 -5.76,5.527 v 0.309 c 0,1.973 -0.93,4.18 -0.93,4.18 0,0 -1.35,8.683 -0.15,10.343 0,0 0.6,5.223 1.46,5.688 0,0 -1.46,5.375 -0.06,6.094 0,0 3.14,18.57 2.75,21.097 0,0 0.51,22.746 1.44,24.067 0,0 -3.16,-0.098 -1.96,2.097 0,0 3.94,13.907 3.94,15.442 0,0 4.25,18.043 9.56,17.926 0,0 15.94,8.355 16.87,8.066 0,0 -3.68,12.73 -2.56,14.641 0,0 0.88,2.234 0.26,3.003 0,0 -0.76,5.395 0.43,6.442 0,0 -3.09,3.594 -0.12,6.418 0,0 3.91,6.469 6.36,6.16 0,0 2.53,3.875 5.86,1.754 0,0 5.61,0.75 6.34,-0.731 0,0 4.99,0.317 5.63,-3.16 0,0 4.94,-4.156 3.46,-7.496 0,0 1.2,-3.851 0.41,-5.512 0,0 -2.56,-3.429 -1.45,-4.027 0,0 2.52,-2.082 0.26,-4.031 l -2.21,-3.871 c 0,0 -0.97,-1.371 -1.52,-1.371 0,0 -1.72,-4.168 -1.72,-5.977 0,0 0.28,-2.098 1.72,-3.312 0,0 13.67,-6.68 13.67,-8.348 0,0 6.38,-4.195 6.38,-6.313 0,0 8.01,-17.613 8.01,-20.308 l 0.73,-1.024 c 0,0 0.15,11.34 1.34,11.34 0,0 5.05,8.969 8.05,7.489 0,0 6.62,2.375 6.62,3.011 0,0 0.73,0.992 0.73,2.328"
         style="fill:#ec303b;fill-opacity:1;fill-rule:nonzero;stroke:none"
         id="path16"
         inkscape:connector-curvature="0" /><path
         d="m 1650.31,691.836 c -1.99,-0.824 -8.4,-9.766 -8.4,-9.766 -1.89,-0.808 -5.43,-0.543 -5.43,-0.543 -1.67,1.164 -1.84,4.325 -1.84,4.325 1.39,17.664 5.47,33.992 5.47,33.992 1.4,0.59 3.21,-1.508 3.21,-1.508 1.04,-1.41 8.9,-5.453 8.9,-5.453 1.44,-4.414 3.46,-5.457 3.46,-5.457 0.42,-4.559 -5.37,-15.59 -5.37,-15.59 z m 20.95,28.426 c 0,0 -8.71,15.367 -10.85,16.621 0,0 -3.68,4.633 -3.68,6.316 0,0 -6.75,8 -7.99,8.77 0,0 -18.8,14.441 -21.94,14.441 0,0 -1.21,10.32 -7.42,7.735 l -0.92,1.375 c 0,0 2.79,2.117 2.79,3.062 l 3.11,6.75 c 0,0 4.52,12.477 -6.35,23.856 0,0 -3.94,2.929 -5.13,2.929 0,0 -2.54,1.196 -5.94,0.305 0,0 -4.33,0.891 -5.55,0 0,0 -2.83,-1.41 -3.72,-0.93 0,0 -4.69,-0.137 -5.15,-5.066 v -1.711 c 0,0 -5.46,-7.992 -4.99,-9.848 0,0 1.1,-1.5 0.45,-2.937 l -1.83,-4.418 c 0,0 -1.54,-1.84 0.64,-2.934 0,0 0.74,-2.012 0.27,-2.762 l -0.09,-1.543 c 0,0 -0.47,-2.796 0.39,-2.796 0,0 -0.15,-4.918 0.84,-4.918 0,0 -6.4,-1.2 -6.4,-1.996 0,0 -6.97,1.996 -7.78,1.73 0,0 -3.89,1.203 -5.38,0.547 l -6.69,0.808 c 0,0 -19.44,8.438 -22.75,7.942 0,0 -5.41,1.57 -8.05,4.16 0,0 -11.65,6.469 -21.48,6.469 0,0 -9.14,2.926 -12.1,4.461 0,0 -9.34,2.925 -10.85,2.925 0,0 -8.59,4.313 -10.91,4.313 0,0 -6.36,2.754 -8.54,2.754 0,0 -7.77,2.762 -7.58,0.461 0,0 -0.82,-2.598 5.29,-2.914 l 2.73,-0.77 c 0,0 1.6,-2.011 2.51,-2.011 l -2.51,-3.7 c 0,0 -1.05,-2.293 0.61,-3.058 0,0 1.9,-5.965 4.98,-6.309 0,0 4.06,0 3.75,1.707 0,0 -0.9,3.207 0.47,1.985 0,0 3.46,-2.458 10.09,-2.313 0,0 2.63,0.148 4.96,-1.379 0,0 12.75,-7.976 13.96,-8.328 0,0 7.16,-5.531 12.3,-6.117 0,0 6.3,-1.098 6.3,-2.012 0,0 4.88,-1.703 6.33,-1.703 0,0 14.66,-4.242 14.79,-10.117 0,0 1.07,-3.828 5.91,-4.145 0,0 11,-4.613 12.19,-8.761 0,0 2.66,-6.165 5.45,-7.684 0,0 3.16,-8.016 3.33,-14.051 0,0 3.12,-34.156 5.21,-39.094 l 0.19,-0.421 c 2.04,-3.09 -5.89,-9.563 -5.4,-14.618 0,0 -3.66,-61.507 3.51,-76.32 0,0 5.8,-20.309 7.5,-22.758 0,0 1.44,-4.914 0.58,-6.148 0,0 -2.92,-24.797 -0.28,-28.821 l 0.9,-0.89 c 0,0 -5.1,-2.879 -5.95,-3.711 0,0 -12.03,-2.594 -11.54,-4.727 0,0 -0.3,-6.293 9.39,-6.492 0,0 11.39,1.094 13.69,1.68 0,0 7.97,0.961 10.73,0.476 0,0 12.28,0.805 12.28,4.024 0,0 -0.17,2.762 -1.06,3.379 0,0 -0.76,19.992 -2.2,23.078 0,0 -1.95,9.043 -0.13,13.086 0,0 1.07,36.781 -1.29,41.234 0,0 6.71,-12.312 7.35,-13.086 0,0 -0.19,-11.094 1.85,-14.91 0,0 2.17,-10.637 2.17,-12.621 0,0 1.52,-26 4.45,-30.52 0,0 -0.84,-9.328 1.91,-12.117 0,0 -5.24,-2.422 -5.44,-3.226 0,0 -7.32,-3.696 -4.02,-6.266 0,0 2.63,-4.66 12.41,-4.316 0,0 9.34,0.89 11.15,3.511 0,0 5.62,2.93 7.95,2.93 0,0 6.81,0.731 5.87,6.133 l -1.35,6.621 1.09,0.469 c 0,0 0.43,3.539 -0.82,5.371 0,0 -2.62,9.25 -2.93,12.808 0,0 -6.02,47.055 -10.52,50.739 0,0 -2.24,3.703 -2.24,7.246 0,0 -0.4,6.097 -1.49,8.781 0,0 -1.4,8.719 -0.66,10.773 0,0 -0.13,5.204 -0.45,6.903 0,0 0.32,3.066 1.11,5.527 0,0 0.1,23.563 -1.4,27.094 0,0 2.49,3.184 6.01,2.918 0,0 5.31,1.5 5.31,3.254 0,0 1.94,3.355 3.41,4.281 0,0 12.92,10.754 16.46,20.289 l 6.86,12 1.65,0.82 c 0,0 -1.78,7.997 -3.69,10.446"
         style="fill:#ec303b;fill-opacity:1;fill-rule:nonzero;stroke:none"
         id="path18"
         inkscape:connector-curvature="0" /><path
         d="m 1704.01,757.156 c 0,0 -3.87,7.047 -3.79,10.074 0,0 1.19,11.563 1.19,12.692 0,0 4.38,12.723 -9.3,18.16 0,0 -9.06,6.285 -15.89,-2.062 0,0 -7.28,-3.727 -5.87,-6.293 0,0 -1.69,-10.559 -0.92,-12.004 0,0 0.78,-2.543 0.43,-3.684 0,0 -0.83,-5.426 1.94,-7.617 0,0 3.65,-5.789 3.65,-7.578 0,0 2.06,-8.145 6.23,-8.219 l -0.32,-3.484 c 0,0 -7.35,-10.414 -9.05,-15.825 0,0 -2.45,-7.32 -1.18,-12.98 1.36,-5.676 -0.25,0.113 -0.25,0.113 0,0 -0.67,-16.844 -1.56,-22.254 0,0 -1.19,-10.121 -0.66,-15.695 0,0 -0.39,-8.586 0.9,-12.062 0,0 -0.37,-7.735 -0.75,-9.79 0,0 -1.18,-5.41 0.13,-5.906 0,0 -4.43,-12.09 -5.03,-14.16 0,0 -6.15,-18.527 -5.23,-21.234 0,0 -0.44,-3.457 -1.16,-4.762 0,0 -5.58,-13.734 -5.58,-16.301 0,0 -6.28,-18.785 -6.35,-21.613 0,0 -2.61,-10.031 -2.61,-11.453 0,0 -2.92,-6.578 -5.12,-8 0,0 -9.54,-14.52 -9.47,-15.926 0.17,-1.422 0.17,-0.273 0.17,-0.273 l -3.63,-5.645 c 0,0 -1.09,-2.195 -2.2,-2.555 0,0 -17.19,-3 -11.28,-7.761 l 15.54,-1.5 c 0,0 6.12,1.043 8.83,-0.258 2.75,-1.321 0.31,-0.434 0.31,-0.434 0,0 15.81,-2.668 18.52,-0.75 0,0 4.87,4.762 4.03,9.149 0,0 0.79,5.785 2.07,8.898 0,0 4.55,9.149 4.69,11.664 0,0 19.18,34.094 19.36,37.317 l 8.79,15.957 c 0,0 0.92,1.816 2.27,-0.375 0,0 11.38,-16.614 13.73,-18.293 0,0 5.98,-8.082 5.98,-9.364 0,0 6.59,-8.89 6.59,-10.429 0,0 5.88,-15.317 9.76,-17.641 0,0 4.22,-5.895 3.66,-10.152 l -2.39,-7.832 -1.05,-3.965 c 0,0 -9.98,0.73 -9.45,-2.211 0,0 -4.09,-3.34 4.91,-4.402 0,0 10.02,-1.262 15.07,0.414 0,0 6.89,3.855 9.48,4.113 0,0 7.02,0.765 7.67,3.473 l 0.94,1.933 c 0,0 5.38,0.645 3.58,5.172 0,0 -6.74,17.121 -10.75,20.687 0,0 -0.9,3.579 -3.38,6.559 0,0 -14.53,33.816 -18.95,37.652 0,0 -4.54,1.711 -6.15,5.821 0,0 0,2.722 -1.52,4.488 0,0 -2.18,22.777 -3.49,24.59 0,0 -0.08,2.672 -0.08,3.988 v 0.242 c 0,1.149 -0.15,5.133 0.28,6.832 0,0 3.16,8.082 3.43,10.411 0,0 -1.19,14.285 -2.89,16.074 0,0 -1.29,9.246 -2.85,11.308 0,0 3.54,27.289 2.03,32.571 0,0 1.39,38.402 -16.01,42.39"
         style="fill:#ec303b;fill-opacity:1;fill-rule:nonzero;stroke:none"
         id="path20"
         inkscape:connector-curvature="0" /><path
         d="m 1811.61,738.449 c -1.4,5.36 -20.95,13.758 -23.06,15.274 -0.6,0.457 -1.2,0.746 -1.46,1.043 v 0.035 l -0.13,0.051 -0.04,-0.032 c -0.84,0.657 -1.33,1.274 -2.17,3.235 l -0.22,0.488 -0.12,0.164 -0.11,0.238 -0.09,0.164 -0.11,0.2 -0.1,0.125 -0.13,0.187 -0.15,0.113 -0.14,0.145 -0.06,0.059 -0.18,0.121 -0.07,0.082 -0.39,0.254 -0.07,0.031 -0.11,0.035 -0.06,0.043 -0.1,0.07 h -0.07 -0.03 -0.1 l -0.11,0.024 v 0 h -0.12 v 0 h -0.03 l -0.14,-0.024 c -0.59,0.981 -1.66,4.992 -1.66,4.992 2.19,4.997 0.81,15.731 0.81,15.731 -3.67,14.113 -14.14,14.113 -15.02,13.484 -0.85,-0.636 -2.62,-0.242 -2.62,-0.242 -7.24,0.512 -10.94,-8.391 -11.78,-10.711 -0.73,-2.359 2.2,-8.375 2.2,-8.894 l 1.52,-2.586 c 0,-0.438 0.82,-1.16 0.82,-1.785 0,-0.614 0.68,-3.645 0.78,-4.024 0.14,-0.332 1.47,-1.848 1.47,-2.609 0,-0.735 0.82,-3.739 1.08,-4.09 l 1.12,-2.649 c 0,-2.246 3.75,-1.746 3.75,-1.746 1.81,0.282 2.4,-3.957 2.4,-3.957 0,0 -0.59,-1.898 -1.15,-2.515 -0.44,-0.618 -3,-2.391 -5.14,-2.508 -2.11,-0.106 -7.32,-2.512 -8.01,-3.246 -0.84,-0.766 -7.19,-7.621 -7.86,-8.239 -0.66,-0.625 -6.3,-10.761 -9.46,-12.75 -3.13,-1.968 -4.13,4.77 -4.42,5.157 l -0.04,0.109 -0.07,0.035 -0.1,0.242 c -0.48,1.086 -1.56,3.766 -1.56,4.579 0,0.976 0.75,4.109 -0.96,5.851 -1.75,1.758 -1.89,2.035 -1.89,2.035 2.47,1.832 -7.31,5.61 -7.31,5.61 7.14,0.511 0.71,2.996 0.71,2.996 -1.12,0.367 -3.5,-1 -3.5,-1 -1.4,-0.379 -0.1,-3.094 -0.1,-3.094 -0.9,-0.414 0.35,-2.297 -0.76,-2.914 l -0.24,-0.117 c -0.95,-0.762 -0.95,-2.985 -0.95,-2.985 -0.9,-0.859 0.58,-2.519 0.58,-2.519 -0.88,-0.985 2.27,-5.461 3.6,-6.215 1.11,-0.68 3.35,-5.91 3.98,-7.641 l 0.17,-0.511 c 0.21,-0.746 1.9,-4.848 1.9,-4.848 0,0 -0.5,-5.637 1.92,-10.875 2.37,-5.227 9.53,-4.605 12.64,-4.469 3.19,0.117 6.57,3.196 7.85,5.235 1.29,1.98 2.05,2.867 1.68,0.488 -0.39,-2.383 1.83,-12.258 3.35,-17.246 0.31,-0.926 0.59,-1.707 0.8,-2.406 v -0.047 l 0.15,-0.5 0.11,-0.438 v -0.094 l 0.36,-1.32 c 0.32,-1 0.36,-1.316 0.36,-1.316 0,0 0.14,-5.25 -0.64,-7.106 -0.73,-1.871 0.39,-29.316 0.78,-31.062 0.43,-1.781 3.2,-9.387 3.3,-13.668 0.1,-4.211 0.71,-17.313 1.87,-21.574 1.17,-4.247 4.92,-27.434 5.44,-31.821 0.54,-4.363 7.28,-25.953 8.68,-28.847 1.38,-2.895 1.62,-7.594 1.62,-8 l -1.25,-2.86 c -0.51,-0.433 -2.65,-4.383 -3.14,-5.125 -0.48,-0.746 -2.6,-1.621 -3.3,-1.621 -0.59,0 -4.22,-1.289 -5.83,-2.25 -1.44,-0.984 -4.58,-2.637 0.26,-5.367 4.98,-2.781 17.12,1.875 18.8,2.492 1.78,0.617 2.9,1.645 4.2,1.645 1.21,0 7,0.996 8.68,1.23 1.64,0.277 0,6.133 0,7.367 0,1.196 -0.28,6.102 -0.28,6.102 0,0 1.69,-6.465 1.69,-7.707 0,-1.274 1.03,-3.738 1.03,-3.738 l 1.21,-0.872 c 0,-0.535 -0.21,-4.898 -0.49,-6.246 -0.22,-1.375 -0.16,-5.398 -0.16,-5.398 1.2,-3.094 11.16,-1.766 11.16,-1.766 8.4,2.504 2.75,15.125 2.75,15.125 0.58,0 1.05,-0.379 1.63,3.133 0.66,3.512 -1.12,20.688 -1.63,29.59 -0.49,8.871 -4.97,28.973 -7.93,34.453 -3.02,5.481 -1.44,32.727 0.7,41.082 2.16,8.371 -2.85,39.957 -2.85,39.957 0,0 0.39,1.824 0.36,4.5 v 0.617 c -0.07,2.965 0,3.504 1.09,3.375 1.17,-0.109 4.7,0.129 4.7,0.129 0,0 4.51,0.352 8.49,0.477 3.84,0.133 5.38,5.515 5.64,6.875 0.27,1.402 0.89,5.644 0.89,5.644 1.85,4.735 -7.93,30.328 -9.31,35.672"
         style="fill:#ec303b;fill-opacity:1;fill-rule:nonzero;stroke:none"
         id="path22"
         inkscape:connector-curvature="0" /><path
         d="M 714.301,516.641 H 634.855 V 681.48 L 535.578,516.641 H 467.91 v 271.422 h 79.418 V 640.645 l 91.008,147.418 h 75.965 V 516.641"
         style="fill:#2e3e47;fill-opacity:1;fill-rule:nonzero;stroke:none"
         id="path24"
         inkscape:connector-curvature="0" /><path
         d="m 980.367,595.559 c 0,-14.954 -3.429,-27.621 -10.254,-38.102 -6.898,-10.48 -16.066,-18.824 -27.59,-25.141 -11.105,-6.015 -23.953,-10.406 -38.488,-13.171 -14.543,-2.782 -30.148,-4.149 -46.82,-4.149 -21.192,0 -40.344,2.012 -57.445,5.969 -17.114,4.023 -33.004,8.707 -47.778,14.082 v 62.379 h 8.516 c 11.535,-6.742 24.344,-12.535 38.469,-17.285 14.109,-4.778 28.425,-7.192 43.027,-7.192 5.383,0 11.965,0.383 19.676,1.18 7.695,0.719 13.711,2.047 18.011,3.898 6.614,2.578 11.289,5.793 14.055,9.598 2.789,3.754 4.168,8.59 4.168,14.402 0,6.5 -1.551,11.602 -4.598,15.368 -3.093,3.75 -7.293,6.621 -12.703,8.453 -5.433,1.797 -11.64,2.957 -18.722,3.32 -7.09,0.41 -14.754,0.57 -23.098,0.57 h -30.238 v 51.742 h 23.101 c 5.844,0 12.942,0.122 21.239,0.383 8.296,0.196 14.886,1.008 19.871,2.375 6.304,1.739 11.238,4.137 14.773,7.305 3.516,3.156 5.309,8.199 5.309,15.109 0,4.953 -1.516,8.993 -4.512,12.172 -2.992,3.117 -6.984,5.617 -11.91,7.477 -4.129,1.512 -8.969,2.687 -14.535,3.449 -5.52,0.785 -11.411,1.195 -17.551,1.195 -11.238,0 -23.254,-1.89 -36.024,-5.566 -12.761,-3.707 -24.363,-8.305 -34.855,-13.84 h -8.555 v 61.399 c 8.758,2.761 22.379,6.117 40.774,10.078 18.367,3.922 36.254,5.886 53.664,5.886 15.558,0 29.863,-1.168 42.976,-3.457 13.063,-2.328 25.332,-6.425 36.946,-12.261 10.777,-5.543 19.523,-12.914 26.078,-22.18 6.629,-9.238 9.933,-20.555 9.933,-33.93 0,-13.742 -4.386,-26.023 -13.152,-36.965 -8.766,-10.914 -19.508,-18.339 -32.086,-22.191 v -2.059 c 16.008,-4.461 28.406,-11.875 37.164,-22.304 8.766,-10.403 13.164,-23.059 13.164,-37.996"
         style="fill:#2e3e47;fill-opacity:1;fill-rule:nonzero;stroke:none"
         id="path26"
         inkscape:connector-curvature="0" /><path
         d="m 1228.39,595.559 c 0,-14.954 -3.44,-27.621 -10.23,-38.102 -6.83,-10.48 -16.13,-18.824 -27.64,-25.141 -11.07,-6.015 -23.87,-10.406 -38.47,-13.171 -14.54,-2.782 -30.14,-4.149 -46.73,-4.149 -21.24,0 -40.4,2.012 -57.52,5.969 -17.13,4.023 -33.05,8.707 -47.78,14.082 v 62.379 h 8.54 c 11.55,-6.742 24.31,-12.535 38.48,-17.285 14.05,-4.778 28.39,-7.192 43.02,-7.192 5.41,0 11.9,0.383 19.66,1.18 7.67,0.719 13.73,2.047 17.95,3.898 6.64,2.578 11.36,5.793 14.16,9.598 2.72,3.754 4.12,8.59 4.12,14.402 0,6.5 -1.54,11.602 -4.62,15.368 -3.09,3.75 -7.26,6.621 -12.72,8.453 -5.35,1.797 -11.58,2.957 -18.69,3.32 -7.05,0.41 -14.8,0.57 -23.1,0.57 h -30.2 v 51.742 h 23.04 c 5.88,0 12.95,0.122 21.29,0.383 8.3,0.196 14.9,1.008 19.82,2.375 6.35,1.739 11.26,4.137 14.8,7.305 3.53,3.156 5.33,8.199 5.33,15.109 0,4.953 -1.5,8.993 -4.49,12.172 -3.07,3.117 -7.01,5.617 -11.88,7.477 -4.26,1.512 -9.07,2.687 -14.61,3.449 -5.53,0.785 -11.4,1.195 -17.55,1.195 -11.21,0 -23.25,-1.89 -35.99,-5.566 -12.83,-3.707 -24.41,-8.305 -34.9,-13.84 h -8.53 v 61.399 c 8.75,2.761 22.35,6.117 40.75,10.078 18.41,3.922 36.29,5.886 53.72,5.886 15.52,0 29.85,-1.168 42.94,-3.457 13.05,-2.328 25.41,-6.425 36.92,-12.261 10.79,-5.543 19.51,-12.914 26.15,-22.18 6.54,-9.238 9.86,-20.555 9.86,-33.93 0,-13.742 -4.37,-26.023 -13.12,-36.965 -8.77,-10.914 -19.5,-18.339 -32.12,-22.191 v -2.059 c 16.01,-4.461 28.44,-11.875 37.19,-22.304 8.74,-10.403 13.15,-23.059 13.15,-37.996"
         style="fill:#2e3e47;fill-opacity:1;fill-rule:nonzero;stroke:none"
         id="path28"
         inkscape:connector-curvature="0" /><path
         d="m 1415.24,589.801 v 54.023 c -13.71,-1.379 -24.82,-2.554 -33.21,-3.574 -8.52,-0.984 -16.77,-2.957 -24.98,-5.828 -7.07,-2.504 -12.59,-6.223 -16.51,-11.27 -3.97,-4.976 -5.91,-11.617 -5.91,-19.953 0,-12.168 3.29,-20.504 9.83,-25.047 6.56,-4.55 16.17,-6.832 28.95,-6.832 7.08,0 14.38,1.629 21.74,4.856 7.44,3.254 14.08,7.781 20.09,13.625 z m 0,-40.192 c -5.54,-4.617 -10.51,-8.746 -14.88,-12.464 -4.41,-3.688 -10.28,-7.395 -17.63,-11.102 -7.3,-3.547 -14.32,-6.219 -21.21,-8.07 -6.82,-1.836 -16.4,-2.731 -28.69,-2.731 -22.97,0 -41.99,7.676 -57.17,23.071 -15.14,15.386 -22.79,34.789 -22.79,58.179 0,19.258 3.82,34.785 11.56,46.68 7.76,11.84 18.8,21.23 33.24,28.152 14.64,7.09 32.15,12.016 52.45,14.774 20.32,2.8 42.16,4.953 65.59,6.48 v 1.387 c 0,14.301 -5.29,24.203 -15.85,29.683 -10.51,5.485 -26.35,8.192 -47.45,8.192 -9.5,0 -20.65,-1.735 -33.48,-5.211 -12.72,-3.441 -25.27,-7.883 -37.37,-13.27 h -6.99 v 62.586 c 8.02,2.321 20.97,5.047 38.83,8.219 17.82,3.152 35.87,4.738 54.06,4.738 44.63,0 77.16,-7.445 97.49,-22.312 20.44,-14.86 30.69,-37.535 30.69,-68.027 V 515.59 h -80.4 v 34.019"
         style="fill:#2e3e47;fill-opacity:1;fill-rule:nonzero;stroke:none"
         id="path30"
         inkscape:connector-curvature="0" /><path
         d="m 368.656,655.652 c 0,16.895 -4.062,30.625 -12.379,41.395 -8.273,10.691 -19.707,17.43 -34.277,20.168 V 590.133 c 16.871,3.801 28.871,11.078 35.992,21.781 7.16,10.699 10.664,25.344 10.664,43.738 z M 257.895,590.133 v 127.082 c -15.176,-2.848 -26.692,-9.649 -34.676,-20.375 -7.992,-10.711 -11.969,-24.445 -11.969,-41.188 0,-18.187 3.703,-32.777 11.207,-43.738 7.469,-10.93 19.273,-18.223 35.438,-21.781 z m 176.925,64.449 c 0,-32.207 -10.496,-57.691 -31.343,-76.394 C 382.539,559.449 355.383,548.586 322,545.594 v -28.953 h -64.105 v 28.953 c -33.383,2.992 -60.54,13.691 -81.446,32.191 -20.898,18.5 -31.34,44.102 -31.34,76.797 0,32.547 10.149,57.82 30.512,75.762 20.317,17.957 47.75,28.484 82.274,31.621 v 26.937 H 322 v -26.937 c 33.484,-2.567 60.719,-12.836 81.586,-30.996 20.793,-18.137 31.234,-43.594 31.234,-76.387"
         style="fill:#2e3e47;fill-opacity:1;fill-rule:nonzero;stroke:none"
         id="path32"
         inkscape:connector-curvature="0" /><path
         d="m 51.5508,404.313 c -3.2578,-1.434 -9.4883,-2.793 -17.3438,-2.793 -15.6211,0 -30.56637,8.378 -30.56637,27.453 0,15.965 12.35937,28.093 32.67577,28.093 8.2422,0 13.0313,-1.523 15.043,-2.39 l -1.5313,-3.196 c -3.2578,1.36 -7.9531,2.317 -13.4179,2.317 -17.4375,0 -28.07817,-9.426 -28.07817,-24.902 0,-14.602 10.06637,-24.024 27.31637,-24.024 5.5547,0 10.9219,0.957 14.5586,2.481 l 1.3438,-3.039"
         style="fill:#ec303b;fill-opacity:1;fill-rule:nonzero;stroke:none"
         id="path34"
         inkscape:connector-curvature="0" /><path
         d="M 96.6914,429.137 H 70.8242 v -23.543 h 28.9336 v -3.196 H 66.3164 v 53.79 h 31.9102 v -3.192 H 70.8242 V 432.32 h 25.8672 v -3.183"
         style="fill:#ec303b;fill-opacity:1;fill-rule:nonzero;stroke:none"
         id="path36"
         inkscape:connector-curvature="0" /><path
         d="m 119.316,428.738 c 2.297,-0.558 5.079,-0.8 8.239,-0.8 11.496,0 18.496,4.707 18.496,13.25 0,8.457 -7.379,12.207 -17.633,12.207 -4.215,0 -7.379,-0.321 -9.102,-0.645 z m -4.507,26.805 c 3.742,0.645 8.339,1.047 13.796,1.047 7.668,0 13.512,-1.602 17.063,-4.551 3.066,-2.473 4.98,-5.988 4.98,-10.539 0,-4.629 -1.632,-8.055 -4.503,-10.691 -4.122,-3.985 -11.118,-6.067 -18.973,-6.067 -2.875,0 -5.559,0.078 -7.856,0.637 v -22.981 h -4.507 v 53.145"
         style="fill:#ec303b;fill-opacity:1;fill-rule:nonzero;stroke:none"
         id="path38"
         inkscape:connector-curvature="0" /><path
         d="m 171.266,405.594 c 1.914,-0.324 4.597,-0.403 7.949,-0.403 9.871,0 19.168,2.95 19.168,12.129 0,8.457 -8.723,12.129 -18.977,12.129 h -8.14 z m 0,26.972 h 9.48 c 9.297,0 15.141,4.551 15.141,10.536 0,7.578 -6.801,10.293 -16.387,10.293 -4.312,0 -6.801,-0.243 -8.234,-0.555 z m -4.508,22.899 c 3.543,0.723 8.144,1.125 12.937,1.125 8.047,0 13.317,-1.438 16.957,-4.395 2.59,-2.238 3.934,-5.109 3.934,-8.859 0,-5.508 -4.699,-10.137 -11.117,-12.051 v -0.156 c 5.363,-1.035 13.605,-4.949 13.605,-13.731 0,-4.382 -1.82,-7.734 -4.789,-10.293 -4.219,-3.671 -11.211,-5.105 -20.316,-5.105 -4.981,0 -8.715,0.242 -11.211,0.477 v 52.988"
         style="fill:#ec303b;fill-opacity:1;fill-rule:nonzero;stroke:none"
         id="path40"
         inkscape:connector-curvature="0" /><path
         d="m 223.398,456.188 v -26.739 c 0,-8.457 -0.097,-14.597 -0.765,-21.863 l 0.187,-0.078 c 3.164,5.183 6.996,10.137 12.266,16.914 l 25.109,31.766 h 4.313 v -53.79 h -4.504 v 27.219 c 0,8.934 0.094,14.754 0.668,21.387 l -0.285,0.078 c -3.258,-5.508 -7.86,-11.172 -12.649,-17.316 l -24.629,-31.368 h -4.121 v 53.79 h 4.41"
         style="fill:#ec303b;fill-opacity:1;fill-rule:nonzero;stroke:none"
         id="path42"
         inkscape:connector-curvature="0" /><path
         d="m 327.66,404.313 c -3.258,-1.434 -9.488,-2.793 -17.344,-2.793 -15.621,0 -30.566,8.378 -30.566,27.453 0,15.965 12.359,28.093 32.676,28.093 8.242,0 13.031,-1.523 15.043,-2.39 l -1.531,-3.196 c -3.258,1.36 -7.958,2.317 -13.415,2.317 -17.441,0 -28.082,-9.426 -28.082,-24.902 0,-14.602 10.067,-24.024 27.313,-24.024 5.559,0 10.926,0.957 14.566,2.481 l 1.34,-3.039"
         style="fill:#ec303b;fill-opacity:1;fill-rule:nonzero;stroke:none"
         id="path44"
         inkscape:connector-curvature="0" /><path
         d="m 394.559,408.23 c 11.5,0.633 22.14,6.622 22.14,21.063 0,15.402 -10.926,20.91 -22.14,21.23 z m -4.598,42.293 c -10.059,-0.32 -22.137,-5.585 -22.137,-21.308 0,-14.129 10.356,-20.117 22.137,-20.985 z m 4.695,7.813 v -4.941 c 13.512,-0.243 26.93,-7.098 26.93,-24.18 0,-17.156 -13.707,-23.387 -27.117,-23.867 v -5.106 h -4.602 v 5.106 c -13.129,0.644 -26.832,6.308 -26.832,23.625 0,17.957 14.567,24.023 27.024,24.422 v 4.941 h 4.597"
         style="fill:#2e3e47;fill-opacity:1;fill-rule:nonzero;stroke:none"
         id="path46"
         inkscape:connector-curvature="0" /><path
         d="m 441.238,456.188 v -26.739 c 0,-8.457 -0.097,-14.597 -0.765,-21.863 l 0.191,-0.078 c 3.164,5.183 6.996,10.137 12.266,16.914 l 25.105,31.766 h 4.313 v -53.79 h -4.5 v 27.219 c 0,8.934 0.09,14.754 0.668,21.387 l -0.289,0.078 c -3.258,-5.508 -7.856,-11.172 -12.649,-17.316 l -24.629,-31.368 h -4.121 v 53.79 h 4.41"
         style="fill:#2e3e47;fill-opacity:1;fill-rule:nonzero;stroke:none"
         id="path48"
         inkscape:connector-curvature="0" /><path
         d="m 506.313,456.188 v -23.622 h 35.644 v 23.622 h 4.504 v -53.79 h -4.504 v 26.895 h -35.644 v -26.895 h -4.508 v 53.79 h 4.508"
         style="fill:#2e3e47;fill-opacity:1;fill-rule:nonzero;stroke:none"
         id="path50"
         inkscape:connector-curvature="0" /><path
         d="m 597.836,424.422 -7.863,17.957 c -1.532,3.75 -2.391,6.465 -3.348,9.504 h -0.195 c -0.957,-3.117 -2.012,-5.91 -3.352,-9.348 l -7.953,-18.113 z m -24.152,-3.184 -7.954,-18.84 h -4.691 l 23.379,53.79 h 4.41 l 23.285,-53.79 h -4.695 l -8.148,18.84 h -25.586"
         style="fill:#2e3e47;fill-opacity:1;fill-rule:nonzero;stroke:none"
         id="path52"
         inkscape:connector-curvature="0" /><path
         d="m 630.426,456.188 v -23.622 h 35.64 v 23.622 h 4.504 v -53.79 h -4.504 v 26.895 h -35.64 v -26.895 h -4.508 v 53.79 h 4.508"
         style="fill:#2e3e47;fill-opacity:1;fill-rule:nonzero;stroke:none"
         id="path54"
         inkscape:connector-curvature="0" /><path
         d="m 733.828,404.313 c -3.258,-1.434 -9.488,-2.793 -17.344,-2.793 -15.621,0 -30.566,8.378 -30.566,27.453 0,15.965 12.355,28.093 32.676,28.093 8.242,0 13.031,-1.523 15.043,-2.39 l -1.535,-3.196 c -3.254,1.36 -7.954,2.317 -13.418,2.317 -17.434,0 -28.075,-9.426 -28.075,-24.902 0,-14.602 10.063,-24.024 27.317,-24.024 5.554,0 10.922,0.957 14.558,2.481 l 1.344,-3.039"
         style="fill:#2e3e47;fill-opacity:1;fill-rule:nonzero;stroke:none"
         id="path56"
         inkscape:connector-curvature="0" /><path
         d="m 752.996,456.188 v -26.739 c 0,-8.457 -0.098,-14.597 -0.766,-21.863 l 0.192,-0.078 c 3.164,5.183 6.996,10.137 12.266,16.914 l 25.105,31.766 h 4.312 v -53.79 h -4.503 v 27.219 c 0,8.934 0.093,14.754 0.671,21.387 l -0.289,0.078 c -3.257,-5.508 -7.855,-11.172 -12.644,-17.316 l -24.629,-31.368 h -4.121 v 53.79 h 4.406"
         style="fill:#2e3e47;fill-opacity:1;fill-rule:nonzero;stroke:none"
         id="path58"
         inkscape:connector-curvature="0" /><path
         d="m 818.074,428.738 c 2.301,-0.558 5.078,-0.8 8.239,-0.8 11.5,0 18.496,4.707 18.496,13.25 0,8.457 -7.379,12.207 -17.633,12.207 -4.211,0 -7.375,-0.321 -9.102,-0.645 z m -4.508,26.805 c 3.743,0.645 8.34,1.047 13.801,1.047 7.664,0 13.512,-1.602 17.063,-4.551 3.062,-2.473 4.976,-5.988 4.976,-10.539 0,-4.629 -1.629,-8.055 -4.5,-10.691 -4.121,-3.985 -11.117,-6.067 -18.976,-6.067 -2.875,0 -5.555,0.078 -7.856,0.637 v -22.981 h -4.508 v 53.145"
         style="fill:#2e3e47;fill-opacity:1;fill-rule:nonzero;stroke:none"
         id="path60"
         inkscape:connector-curvature="0" /><path
         d="m 864.844,428.895 c 0,-12.129 8.429,-24.18 23.761,-24.18 15.333,0 23.864,11.57 23.864,24.902 0,11.328 -7.477,24.258 -23.664,24.258 -16.387,0 -23.961,-12.453 -23.961,-24.98 z m 52.324,0.957 c 0,-18.997 -13.898,-28.332 -28.844,-28.332 -15.906,0 -28.176,10.46 -28.176,27.218 0,17.637 12.747,28.328 28.938,28.328 16.293,0 28.082,-10.535 28.082,-27.214"
         style="fill:#2e3e47;fill-opacity:1;fill-rule:nonzero;stroke:none"
         id="path62"
         inkscape:connector-curvature="0" /><path
         d="m 937.012,405.594 c 1.914,-0.324 4.597,-0.403 7.953,-0.403 9.867,0 19.16,2.95 19.16,12.129 0,8.457 -8.715,12.129 -18.969,12.129 h -8.144 z m 0,26.972 h 9.488 c 9.289,0 15.137,4.551 15.137,10.536 0,7.578 -6.805,10.293 -16.387,10.293 -4.312,0 -6.805,-0.243 -8.238,-0.555 z m -4.508,22.899 c 3.547,0.723 8.144,1.125 12.937,1.125 8.047,0 13.325,-1.438 16.961,-4.395 2.586,-2.238 3.93,-5.109 3.93,-8.859 0,-5.508 -4.695,-10.137 -11.117,-12.051 v -0.156 c 5.363,-1.035 13.605,-4.949 13.605,-13.731 0,-4.382 -1.82,-7.734 -4.789,-10.293 C 959.813,403.434 952.82,402 943.715,402 c -4.981,0 -8.723,0.242 -11.211,0.477 v 52.988"
         style="fill:#2e3e47;fill-opacity:1;fill-rule:nonzero;stroke:none"
         id="path64"
         inkscape:connector-curvature="0" /><path
         d="m 1016.55,424.422 -7.85,17.957 c -1.54,3.75 -2.4,6.465 -3.36,9.504 h -0.19 c -0.96,-3.117 -2.02,-5.91 -3.36,-9.348 l -7.946,-18.113 z m -24.148,-3.184 -7.957,-18.84 h -4.691 l 23.376,53.79 h 4.41 l 23.29,-53.79 h -4.7 l -8.14,18.84 h -25.588"
         style="fill:#2e3e47;fill-opacity:1;fill-rule:nonzero;stroke:none"
         id="path66"
         inkscape:connector-curvature="0" /><path
         d="m 1049.14,456.188 v -23.622 h 35.65 v 23.622 h 4.5 v -53.79 h -4.5 v 26.895 h -35.65 v -26.895 h -4.5 v 53.79 h 4.5"
         style="fill:#2e3e47;fill-opacity:1;fill-rule:nonzero;stroke:none"
         id="path68"
         inkscape:connector-curvature="0" /><path
         d="m 1113.26,456.188 v -26.739 c 0,-8.457 -0.1,-14.597 -0.78,-21.863 l 0.2,-0.078 c 3.16,5.183 6.99,10.137 12.27,16.914 l 25.1,31.766 h 4.32 v -53.79 h -4.51 v 27.219 c 0,8.934 0.09,14.754 0.67,21.387 l -0.28,0.078 c -3.26,-5.508 -7.86,-11.172 -12.66,-17.316 l -24.62,-31.368 h -4.12 v 53.79 h 4.41"
         style="fill:#2e3e47;fill-opacity:1;fill-rule:nonzero;stroke:none"
         id="path70"
         inkscape:connector-curvature="0" /><path
         d="m 1202.29,452.75 c -1.63,0.324 -4.88,0.723 -9.2,0.723 -9.3,0 -17.54,-2.793 -17.54,-11.414 0,-7.422 7.76,-11.887 18.5,-11.887 3.36,0 6.42,0 8.24,0.078 z m -34.5,-50.352 c 0.77,1.282 1.53,2.637 2.2,4.153 2.88,6.219 4.7,14.363 10.16,19.07 1.63,1.281 3.55,2.317 5.56,2.715 v 0.156 c -8.63,1.125 -14.76,6.309 -14.76,13.332 0,4.551 2.01,8.223 5.47,10.614 3.45,2.472 8.91,4.152 16.86,4.152 4.41,0 9.59,-0.402 13.51,-1.125 v -53.067 h -4.5 v 24.661 h -7.86 c -4.7,0 -8.05,-0.715 -10.64,-3.028 -4.69,-4.074 -6.61,-12.531 -9.2,-18.039 -0.57,-1.277 -1.15,-2.39 -1.91,-3.594 h -4.89"
         style="fill:#2e3e47;fill-opacity:1;fill-rule:nonzero;stroke:none"
         id="path72"
         inkscape:connector-curvature="0" /><path
         d="m 1267.27,454.031 c -6.13,0 -9.48,-4.386 -9.48,-9.258 0,-4.55 2.67,-7.902 5.26,-10.851 7.67,3.351 13.04,6.699 13.04,12.129 0,3.828 -2.59,7.98 -8.72,7.98 z m -1.63,-49.394 c 6.61,0 12.18,2.547 15.91,6.14 -3.73,3.672 -12.07,11.25 -20.32,19.317 -4.12,-2.078 -10.35,-6.063 -10.35,-13.094 0,-7.18 6.23,-12.363 14.67,-12.363 z m 25.58,-2.239 c -2.1,1.758 -4.02,3.516 -7.09,6.145 -6.51,-5.266 -12.84,-7.023 -19.63,-7.023 -10.55,0 -18.22,6.621 -18.22,15 0,7.511 5.56,12.375 12.84,15.89 v 0.235 c -3.64,4.07 -5.65,7.976 -5.65,11.726 0,6.465 5.27,12.695 14.57,12.695 6.9,0 12.35,-4.148 12.35,-10.691 0,-5.754 -4.12,-10.137 -15.03,-14.687 v -0.235 c 6.51,-6.387 13.98,-13.41 18.77,-17.961 3.17,3.985 5.18,9.336 6.62,17.317 h 4.41 c -1.73,-8.614 -4.22,-15.157 -8.44,-19.551 3.26,-2.793 6.43,-5.508 10.26,-8.86 h -5.76"
         style="fill:#2e3e47;fill-opacity:1;fill-rule:nonzero;stroke:none"
         id="path74"
         inkscape:connector-curvature="0" /><path
         d="m 1337.9,456.188 v -26.739 c 0,-8.457 -0.09,-14.597 -0.77,-21.863 l 0.2,-0.078 c 3.16,5.183 6.99,10.137 12.26,16.914 l 25.11,31.766 h 4.32 v -53.79 h -4.51 v 27.219 c 0,8.934 0.09,14.754 0.67,21.387 l -0.28,0.078 c -3.27,-5.508 -7.86,-11.172 -12.66,-17.316 l -24.62,-31.368 h -4.12 v 53.79 h 4.4"
         style="fill:#2e3e47;fill-opacity:1;fill-rule:nonzero;stroke:none"
         id="path76"
         inkscape:connector-curvature="0" /><path
         d="m 1402.98,456.188 v -23.622 h 35.65 v 23.622 h 4.5 v -53.79 h -4.5 v 26.895 h -35.65 v -26.895 h -4.5 v 53.79 h 4.5"
         style="fill:#2e3e47;fill-opacity:1;fill-rule:nonzero;stroke:none"
         id="path78"
         inkscape:connector-curvature="0" /><path
         d="m 1467.19,405.594 c 1.92,-0.324 4.6,-0.403 7.95,-0.403 9.87,0 19.17,2.95 19.17,12.129 0,8.457 -8.72,12.129 -18.97,12.129 h -8.15 z m 0,26.972 h 9.48 c 9.3,0 15.15,4.551 15.15,10.536 0,7.578 -6.81,10.293 -16.39,10.293 -4.31,0 -6.8,-0.243 -8.24,-0.555 z m -4.5,22.899 c 3.54,0.723 8.14,1.125 12.93,1.125 8.06,0 13.32,-1.438 16.96,-4.395 2.59,-2.238 3.93,-5.109 3.93,-8.859 0,-5.508 -4.69,-10.137 -11.12,-12.051 v -0.156 c 5.38,-1.035 13.62,-4.949 13.62,-13.731 0,-4.382 -1.83,-7.734 -4.8,-10.293 C 1489.99,403.434 1483,402 1473.9,402 c -4.99,0 -8.72,0.242 -11.21,0.477 v 52.988"
         style="fill:#2e3e47;fill-opacity:1;fill-rule:nonzero;stroke:none"
         id="path80"
         inkscape:connector-curvature="0" /><path
         d="m 1545.29,429.137 h -25.87 v -23.543 h 28.93 v -3.196 h -33.43 v 53.79 h 31.9 v -3.192 h -27.4 V 432.32 h 25.87 v -3.183"
         style="fill:#2e3e47;fill-opacity:1;fill-rule:nonzero;stroke:none"
         id="path82"
         inkscape:connector-curvature="0" /><path
         d="m 1607.1,404.313 c -3.25,-1.434 -9.48,-2.793 -17.34,-2.793 -15.62,0 -30.57,8.378 -30.57,27.453 0,15.965 12.37,28.093 32.68,28.093 8.24,0 13.03,-1.523 15.05,-2.39 l -1.55,-3.196 c -3.25,1.36 -7.94,2.317 -13.4,2.317 -17.44,0 -28.08,-9.426 -28.08,-24.902 0,-14.602 10.06,-24.024 27.31,-24.024 5.55,0 10.92,0.957 14.57,2.481 l 1.33,-3.039"
         style="fill:#2e3e47;fill-opacity:1;fill-rule:nonzero;stroke:none"
         id="path84"
         inkscape:connector-curvature="0" /><path
         d="m 1638.45,452.996 h -21.08 v 3.192 h 46.76 v -3.192 h -21.08 v -50.598 h -4.6 v 50.598"
         style="fill:#2e3e47;fill-opacity:1;fill-rule:nonzero;stroke:none"
         id="path86"
         inkscape:connector-curvature="0" /><path
         d="m 1679.09,456.188 v -26.739 c 0,-8.457 -0.1,-14.597 -0.77,-21.863 l 0.19,-0.078 c 3.16,5.183 6.99,10.137 12.27,16.914 l 25.1,31.766 h 4.32 v -53.79 h -4.51 v 27.219 c 0,8.934 0.1,14.754 0.67,21.387 l -0.28,0.078 c -3.26,-5.508 -7.86,-11.172 -12.66,-17.316 l -24.62,-31.368 h -4.12 v 53.79 h 4.41"
         style="fill:#2e3e47;fill-opacity:1;fill-rule:nonzero;stroke:none"
         id="path88"
         inkscape:connector-curvature="0" /><path
         d="m 1744.16,456.188 v -50.594 h 33.92 v 50.594 h 4.51 v -50.594 h 5.27 l -0.58,-15.801 h -3.83 l -0.38,12.605 h -43.41 v 53.79 h 4.5"
         style="fill:#2e3e47;fill-opacity:1;fill-rule:nonzero;stroke:none"
         id="path90"
         inkscape:connector-curvature="0" /><path
         d="m 1807.89,456.188 v -26.739 c 0,-8.457 -0.09,-14.597 -0.76,-21.863 l 0.19,-0.078 c 3.16,5.183 6.99,10.137 12.26,16.914 l 25.11,31.766 h 4.32 v -53.79 h -4.51 v 27.219 c 0,8.934 0.09,14.754 0.67,21.387 l -0.28,0.078 c -3.27,-5.508 -7.86,-11.172 -12.66,-17.316 l -24.62,-31.368 h -4.12 v 53.79 h 4.4"
         style="fill:#2e3e47;fill-opacity:1;fill-rule:nonzero;stroke:none"
         id="path92"
         inkscape:connector-curvature="0" /><path
         d="m 1884.36,466.805 c 0.58,-2.082 1.54,-4.953 6.9,-4.953 5.28,0 6.23,2.636 6.71,4.953 h 4.22 c -0.29,-4.395 -3.26,-7.825 -11.12,-7.825 -7.57,0 -10.64,3.43 -10.92,7.825 z m -11.49,-10.617 v -26.739 c 0,-8.457 -0.1,-14.597 -0.78,-21.863 l 0.2,-0.078 c 3.16,5.183 6.99,10.137 12.26,16.914 l 25.11,31.766 h 4.32 v -53.79 h -4.51 v 27.219 c 0,8.934 0.09,14.754 0.67,21.387 l -0.28,0.078 c -3.26,-5.508 -7.86,-11.172 -12.66,-17.316 l -24.62,-31.368 h -4.12 v 53.79 h 4.41"
         style="fill:#2e3e47;fill-opacity:1;fill-rule:nonzero;stroke:none"
         id="path94"
         inkscape:connector-curvature="0" /><path
         d="M 483.297,99.0703 C 483.297,44.3555 438.941,0 384.227,0 c -54.715,0 -99.071,44.3555 -99.071,99.0703 0,54.7147 44.356,99.0667 99.071,99.0667 54.714,0 99.07,-44.352 99.07,-99.0667"
         style="fill:#ec303b;fill-opacity:1;fill-rule:nonzero;stroke:none"
         id="path96"
         inkscape:connector-curvature="0" /><path
         d="m 557.391,100.707 c 0,-54.7148 -44.356,-99.07028 -99.067,-99.07028 -54.715,0 -99.07,44.35548 -99.07,99.07028 0,54.715 44.355,99.07 99.07,99.07 54.711,0 99.067,-44.355 99.067,-99.07"
         style="fill:#f04250;fill-opacity:1;fill-rule:nonzero;stroke:none"
         id="path98"
         inkscape:connector-curvature="0" /><path
         d="m 640.934,100.707 c 0,-54.7148 -44.356,-99.07028 -99.071,-99.07028 -54.715,0 -99.066,44.35548 -99.066,99.07028 0,54.715 44.351,99.07 99.066,99.07 54.715,0 99.071,-44.355 99.071,-99.07"
         style="fill:#fde1e9;fill-opacity:1;fill-rule:nonzero;stroke:none"
         id="path100"
         inkscape:connector-curvature="0" /><path
         d="m 1305.35,116.145 c 0,-54.7114 -44.35,-99.0669 -99.07,-99.0669 -54.71,0 -99.07,44.3555 -99.07,99.0669 0,54.714 44.36,99.07 99.07,99.07 54.72,0 99.07,-44.356 99.07,-99.07"
         style="fill:#2e3e47;fill-opacity:1;fill-rule:nonzero;stroke:none"
         id="path102"
         inkscape:connector-curvature="0" /><path
         d="m 1423.34,114.508 c 0,-54.7111 -44.35,-99.0666 -99.07,-99.0666 -54.71,0 -99.07,44.3555 -99.07,99.0666 0,54.715 44.36,99.07 99.07,99.07 54.72,0 99.07,-44.355 99.07,-99.07"
         style="fill:#4b6673;fill-opacity:1;fill-rule:nonzero;stroke:none"
         id="path104"
         inkscape:connector-curvature="0" /><path
         d="m 1557.25,114.508 c 0,-54.7111 -44.35,-99.0666 -99.07,-99.0666 -54.71,0 -99.06,44.3555 -99.06,99.0666 0,54.715 44.35,99.07 99.06,99.07 54.72,0 99.07,-44.355 99.07,-99.07"
         style="fill:#839ca6;fill-opacity:1;fill-rule:nonzero;stroke:none"
         id="path106"
         inkscape:connector-curvature="0" /><path
         d="m 1675.58,114.508 c 0,-54.7111 -44.36,-99.0666 -99.07,-99.0666 -54.72,0 -99.07,44.3555 -99.07,99.0666 0,54.715 44.35,99.07 99.07,99.07 54.71,0 99.07,-44.355 99.07,-99.07"
         style="fill:#e7ecec;fill-opacity:1;fill-rule:nonzero;stroke:none"
         id="path108"
         inkscape:connector-curvature="0" /></g></g></svg>