<?xml version="1.0" encoding="UTF-8" standalone="no"?>
<!-- Created with Inkscape (http://www.inkscape.org/) -->

<svg
   xmlns:dc="http://purl.org/dc/elements/1.1/"
   xmlns:cc="http://creativecommons.org/ns#"
   xmlns:rdf="http://www.w3.org/1999/02/22-rdf-syntax-ns#"
   xmlns:svg="http://www.w3.org/2000/svg"
   xmlns="http://www.w3.org/2000/svg"
   xmlns:sodipodi="http://sodipodi.sourceforge.net/DTD/sodipodi-0.dtd"
   xmlns:inkscape="http://www.inkscape.org/namespaces/inkscape"
   version="1.1"
   id="svg2"
   xml:space="preserve"
   width="563"
   height="93"
   viewBox="0 0 563 93"
   sodipodi:docname="logo3.svg"
   inkscape:version="0.92.3 (2405546, 2018-03-11)"><metadata
     id="metadata8"><rdf:RDF><cc:Work
         rdf:about=""><dc:format>image/svg+xml</dc:format><dc:type
           rdf:resource="http://purl.org/dc/dcmitype/StillImage" /><dc:title></dc:title></cc:Work></rdf:RDF></metadata><defs
     id="defs6" /><sodipodi:namedview
     pagecolor="#ffffff"
     bordercolor="#666666"
     borderopacity="1"
     objecttolerance="10"
     gridtolerance="10"
     guidetolerance="10"
     inkscape:pageopacity="0"
     inkscape:pageshadow="2"
     inkscape:window-width="1366"
     inkscape:window-height="713"
     id="namedview4"
     showgrid="false"
     inkscape:zoom="1.8175284"
     inkscape:cx="258.16478"
     inkscape:cy="30.01678"
     inkscape:window-x="0"
     inkscape:window-y="27"
     inkscape:window-maximized="1"
     inkscape:current-layer="g10" /><g
     id="g10"
     inkscape:groupmode="layer"
     inkscape:label="ink_ext_XXXXXX"
     transform="matrix(1.3333333,0,0,-1.3333333,0,93.000012)"><g
       id="g12"
       transform="matrix(0.1,0,0,0.1,0.45177966,-320.21509)"><path
         d="m 204.438,3581.78 c -1.883,3.14 -4.461,4.4 -1.602,9.01 2.926,4.69 2.086,6.29 1.602,10.49 -0.344,4.15 -2.86,10.1 -4.461,12.04 0,0 -3.727,-15.84 -4.914,-22.3 -1.325,-6.52 -1.672,-6.69 -0.844,-9.54 0.844,-2.87 2.445,-11.18 1.816,-12.31 l 7.43,7.56 c 0,0 2.887,2.02 0.973,5.05 z m 34.578,-18.67 c -4.879,-1.51 -12.586,-9.23 -18.825,-14.96 -6.519,-5.79 -15.191,-11.33 -15.191,-11.33 0,0 -3.004,-4.6 -3.004,-8.33 0,-3.81 -1.187,-8.68 0,-13.52 1.254,-4.92 5.367,-15.86 4.356,-20.57 -1.082,-4.64 -6.618,-3.58 -6.618,-3.58 0,0 0,0 1.075,-2.86 0.984,-2.86 6.062,-43.5 5.925,-46.53 -0.171,-3.01 2.274,-14.26 1.848,-19.11 -0.375,-4.84 -0.375,-27.84 -3.312,-35.65 -2.86,-7.78 3.941,-38.41 1.293,-46.64 -2.645,-8.29 1.644,-12.96 1.816,-21.89 0.203,-8.78 0.629,-16.47 -1.508,-21.61 -1.949,-5.02 -1.871,-35.58 -1.601,-37.65 0.21,-1.87 -1.176,-12.53 -1.176,-15.04 0,-2.55 0.277,-8.93 0.906,-11.57 0.898,-2.77 0.629,-7.77 1.871,-9.41 1.336,-1.6 2.762,-2.63 9.352,-5.23 6.547,-2.44 9.859,-5.93 10.07,-9.14 0.137,-3.27 -2.441,-4.35 -17.914,-4.69 -15.414,-0.35 -34.332,2.88 -34.332,2.88 l -0.176,-2.3 c -4.566,-0.24 -21.226,0.63 -21.226,0.63 -1.188,2.38 -1.536,16.52 -0.559,18.81 1.043,2.34 -0.418,5.68 -2.02,10.79 -1.601,5.02 -3.699,11.74 -2.683,14.43 1.082,2.68 0.762,7.97 0.383,13.38 -0.383,5.68 1.257,21.71 4.32,29.86 3.137,8.1 6.129,40.02 5.957,46.08 -0.203,6.13 2.445,34.46 2.445,35.87 0,1.43 1.668,11.91 -0.496,15.27 -2.297,3.47 -2.992,9.79 -4.769,15.86 -1.883,6.19 -5.024,15.36 -10.567,21.29 -5.504,5.96 -7.976,16.06 -8.605,13.35 -0.559,-2.72 -7,-17.26 -8.055,-21.86 -0.973,-4.46 -1.738,-28.44 -2.855,-34.88 -0.903,-6.46 -15.196,-30.54 -16.235,-32.28 -0.91,-1.82 -5.894,-17.5 -6.308,-22.87 -0.387,-5.37 -18.7542,-51.3 -19.8753,-55.66 -1.3243,-4.35 -9.5821,-24.57 -9.0977,-26.66 0.4219,-2.16 3.7344,-3.98 2.8594,-5.93 -0.8321,-1.99 -2.7149,-7.03 -2.0196,-9.76 0.629,-2.72 5.9571,-15.89 5.9571,-15.89 0,-9.2 -9.0938,-11.65 -9.0938,-11.65 -12.9609,-1.58 -29.5547,10.22 -32.414,17.23 -2.7891,7.03 -4.5274,14.64 -4.918,18.08 -0.4102,3.42 -3.2734,11.34 -6.1992,17.4 -2.8946,6.2 -2.2696,9.76 -1.5742,13 0.5625,3.25 1.2265,5.82 0.3203,10.14 -0.8008,4.33 14.1875,38.13 15.2304,41.8 1.043,3.56 4.9141,16.58 4.9141,16.58 0,3.6 2.2305,12.51 4.5313,14.64 2.2304,1.92 11.2617,15.23 13.2421,18.89 2.1641,3.56 3.6954,6.1 0.4922,11.12 -3.2734,4.98 -1.3906,24.74 0.2774,27.77 1.6054,3.04 0.7617,6.67 -0.4922,9.32 -1.1758,2.71 -0.8281,21.12 1.043,29.76 1.8164,8.58 0.8437,9.21 0,13.52 -0.8282,4.25 0,34.1 0,34.1 l -3.4766,3.55 c -14.1563,13.83 -27.7461,11.55 -32.3438,17.11 -4.4336,5.63 3.2071,25.07 6.1641,31.18 2.7891,6.13 8.4688,29.43 11.0469,33.39 2.375,3.91 7.2929,21.07 9.7929,25.19 2.4415,4.1 6.5977,20.85 9.6602,27.16 3.0664,6.39 1.4648,8.4 0.4141,14.27 -1.0469,5.99 -7.7657,11.34 -7.6328,18.25 0.2812,6.81 -2.8204,6.95 -7,10.59 -4.1133,3.58 -31.754,33.67 -33.4258,38.01 -1.6407,4.26 -8.9219,11.6 -14.42972,22.41 -5.542968,10.77 -5.128905,32.19 -3.41797,37.39 1.60547,5.22 5.71875,38.75 5.71875,38.75 0,3.26 12.82424,1 12.82424,1 0.3476,1.91 9.6875,13.41 9.8984,16.7 0.2422,3.2 3.1016,10.6 1.1485,12.54 -2.0938,2.04 -2.0938,16.03 -2.0938,18.61 0,2.45 -1.043,6.31 -1.1797,8.84 -0.3164,2.5 -1.9219,7.19 -1.9219,7.19 -0.8281,6.31 4.0469,5.03 4.0469,5.03 1.711,0.22 3.3828,-7 4.0117,-9.58 0.625,-2.51 1.1836,-6.06 1.1836,-6.06 0,0 0.8321,0.11 0.5508,1.73 -0.1328,1.69 -0.7617,8.52 -0.7617,10.16 0,1.6 1.043,6.31 1.043,6.31 -0.6289,6.62 3.0976,6.41 3.0976,6.41 2.8633,0 3.0742,-4.27 3.0742,-4.96 l 0.1329,-7.76 0.3203,-5.26 0.3086,-4.61 c 0,0 1.4687,6.22 0.9453,8.42 -0.6641,2.14 1.4609,7.18 1.4609,7.18 l 0.2109,7.9 c 0,3.31 3.4219,2.38 3.4219,2.38 3.0586,0.4 2.9219,-5.94 2.9219,-6.85 l -0.4141,-6.73 c 0,-0.69 -0.3164,-2.23 -0.3164,-3.88 0,-1.66 0.4532,-8.33 0.4532,-8.33 l 0.8671,-0.09 c -0.4531,5.18 1.043,15.46 1.043,15.46 0.5313,6.48 4.8867,5.03 4.8867,5.03 2.8594,-0.37 2.2344,-10.21 2.2344,-10.21 0,0 -0.8437,-7.28 -1.2578,-9.32 -0.3477,-1.9 1.7109,-13.25 3.1016,-14.88 1.4687,-1.71 4.7421,-2.7 6.0625,1.83 1.5351,4.51 10.5585,5.58 10.5585,5.58 5.129,0 3.5235,-3.65 3.5235,-3.65 -1.9492,-0.37 -6.1016,-5.75 -8.1914,-7.94 -2.0274,-2.14 -3.5508,-7.49 -5.8906,-8.48 -2.1641,-0.79 -3.2032,-1.98 -4.5938,-3.78 -1.4687,-1.77 -6.8672,-5.11 -6.8672,-5.11 -4.8476,-3.16 -12.9023,-21.03 -12.625,-23.92 0.5235,-2.88 -1.9101,-32.81 -3.6875,-37.77 -1.4687,-5.05 0,-12.2 2.086,-13.95 2.125,-1.76 4.9843,-14.61 4.9843,-14.61 0,0 4.043,-5.71 6.8672,-8.12 2.7891,-2.6 19.4492,-17.57 22.375,-19.32 2.793,-1.75 8.5391,-0.72 9.7266,1.04 1.2929,1.86 15.3361,-1.76 18.3671,-2.44 2.793,-0.77 14.883,-3.29 14.883,-3.29 l 0.484,3.29 c -0.484,4.62 -4.386,8.22 -4.386,8.22 0,0 -2.055,1.37 -6.172,4.94 -4.114,3.57 -1.602,11.38 -1.602,11.38 -1.254,6.4 1.602,15.35 1.602,15.35 6.172,20.36 25.265,20.74 25.265,20.74 3.981,3.14 14.508,0.3 14.508,0.3 16.727,0 21.293,-23.2 21.293,-23.2 0,0 0,-3.51 0,-5.33 0,-1.73 1.606,-7.86 1.606,-7.86 1.39,-7.13 -1.606,-14.74 -1.922,-15.86 -0.203,-1.05 -1.809,-2.89 -2.782,-6.24 -1.05,-3.45 -3.941,-4.88 -3.941,-4.88 -1.672,-4.32 11.223,-12.3 16.594,-13.15 5.398,-0.84 26.515,-10.5 28.789,-12.07 2.23,-1.65 10.273,-3.27 10.273,-3.27 5.09,0.91 6.801,-15.96 7.36,-20.03 0.695,-3.92 3.062,-8.02 2.859,-13.29 -0.145,-5.21 0.832,-6.99 2.301,-9.87 1.496,-2.88 9.269,-28.45 9.269,-32.31 0,-3.74 3.274,-5.41 5.371,-18.57 2.02,-13.16 -2.445,-25.41 -7.425,-26.78"
         style="fill:#ee2139;fill-opacity:1;fill-rule:nonzero;stroke:none"
         id="path14"
         inkscape:connector-curvature="0" /><path
         d="m 4071.21,3689.07 c 0,0 -6.21,1.46 -5.29,5.44 1.04,3.87 -4,3.87 -4.8,0.54 0,0 -7.29,-3.57 -5.98,3.06 0,0 5.02,6.29 3.36,8.59 0,0 -1.91,5 -3.36,-0.31 0,0 -6.24,-1.68 -2.95,7.32 0,0 -5.68,-1.3 1.04,2.69 0,0 -12.13,-0.74 4.7,12.28 0,0 1.66,2.97 0,6.61 0,0 -1.79,12.91 3.57,12.91 0,0 2.34,15.55 7.44,15.55 0,0 6.61,21.94 26.5,22.6 0,0 8.37,-0.37 8.37,-2.01 0,0 18.03,-3.34 18.03,-8.95 0,0 14.75,-11.92 13.17,-18.26 0,0 5.3,-5.97 3.23,-12.92 0,0 6,-3.57 8.78,-2.64 0,0 -4.57,-0.69 -6.71,-0.38 0,0 0.55,-9.94 3.52,-10.16 0,0 9.44,-9.08 2.51,-9.08 0,0 3.02,-8.6 -2.8,-7.25 0,0 0.99,-9.99 -3,-9.99 0,0 0.81,-10.6 -1.3,-11.57 l 1.07,-2.34 16.66,-5.99 c 0,0 15.3,-4.93 23.08,-38.82 l -2.62,-4.27 c 0,0 4.38,-48.76 3.3,-52.42 0,0 -1.21,-12.67 -0.26,-18.53 0,0 2.6,-28.92 0.58,-36.25 0,0 -2.89,-30.5 -1.91,-32.74 0,0 -0.39,-11.93 0.67,-15.32 l 0.66,-17.28 c 0,0 0.58,-9.95 -4.33,-12.91 0,0 -1.72,-4.71 -4.44,-3.69 0,0 3.31,-23.13 1.97,-31.79 0,0 3.08,-26.48 1.34,-30.92 l 0.89,-15.54 c 0,0 2.85,-10.06 4.15,-10.06 0,0 6.4,-4.53 -15.11,-5.17 0,0 7.71,-20.6 6.1,-39.48 0,0 3.38,1.92 3.38,-5.05 0,0 7.73,-25.48 9.07,-30.46 0,0 6.06,-32.21 -4.35,-41.18 0,0 -28.44,-25.14 -26.83,2.73 0,0 0.71,29.88 2.09,32.15 l 1.82,5.66 c 0,0 1.13,4.55 -0.44,6.34 0,0 -3.81,4.25 -1.77,11.51 0,0 -6.71,20.22 -14,22.91 0,0 -13.77,7.37 -17.41,27.81 0,0 -15.81,-1.9 -17.77,-0.27 0,0 8.67,-37.2 3.34,-45.48 0,0 2.57,-60.63 3.23,-65.63 0,0 9.82,-23.6 2.42,-26.51 0,0 -11.75,-1.98 -13.51,-4 0,0 -31.01,-1.74 -33.09,3.31 0,0 -9.29,0.69 4.95,9.58 0,0 10.16,3.45 9.78,7.97 0,0 1.33,6 9.09,10.63 0,0 2.64,10.63 0.77,16.57 0,0 -12.25,34.19 -10.86,37.75 0,0 -15.73,48.92 -9.74,59.76 l -0.23,6.34 c 0,0 -9.86,0.69 -9.86,6.61 0,0 -2.21,32.89 -6.91,36.85 0,0 -10.78,41.14 -7.08,50.75 0,0 -4.65,-3.34 -4.65,-1.64 0,0 -6.06,-5.92 -7.68,-3.3 0,0 -8.73,-20.93 -6.69,-2.01 0,0 -6.1,1.32 -8.1,4.98 l -1.7,1.06 c 0,0 -9.69,-10.03 -7.39,2.65 0,0 1.08,9.84 3.08,11.55 0,0 -5.76,1.33 -1.7,7.29 0,0 -1,13 9.16,14.59 0,0 3.33,-1.37 2.53,8.59 0,0 -1.26,30.84 -5.27,34.8 0,0 -6.42,18.02 -6.42,25.92 0,0 -4.06,18.64 -2.38,21.9 0,0 -8.08,20.61 -8.31,24.56 l -4.38,4.97 c 0,0 -3.3,-18.95 -5.38,-20.26 0,0 8.67,-23.23 7.38,-26.5 0,0 4.97,-50.72 -1.28,-51.41 0,0 5.72,-58.05 -9.73,-74.35 0,0 -14.64,-44.48 -13.73,-51.7 0,0 1.68,-43.83 -2.34,-46.11 0,0 7.33,-12.31 7.33,-15.64 0,0 26.04,-13.92 22.74,-24.89 l -1.85,-5.57 c 0,0 3,-4.72 -0.76,-9.96 l -5.38,-9.62 c 0,0 8.67,-19.94 -1.1,-37.56 0,0 -2.53,-9.62 -10.54,-11.59 0,0 -9.82,-2.01 -11.48,4.37 l -0.91,12.24 c 0,0 -4.68,19.32 -2.05,23.15 l -6.35,6.74 c 0,0 -2.7,-5.71 -6.87,-5.29 l -0.27,-19.3 c 0,0 12.67,-21.91 4.82,-26.88 0,0 0.79,-7.31 -3.78,-8.45 l -1.04,-0.14 c -5.68,-0.34 -25.78,-2.28 -29.52,-0.34 0,0 -4.57,-0.61 -4.57,4.29 l 0.96,7.33 c 0,0 -3.34,8.23 -5.02,9.96 0,0 -4.23,16.29 1.11,22.21 l 0.95,20.18 c 0,0 1,57.77 5.76,63.05 0,0 -13.11,16.37 -12.43,21.61 0,0 -10.44,10.27 -10.44,15.92 0,0 -4.4,22.54 -4.74,25.87 0,0 -13.43,26.14 -13.43,32.51 0,0 -1.61,32.23 2.87,35.79 0,0 4.57,25.15 2.53,26.87 0,0 -3.21,1.05 -3.21,2.69 l -0.81,45.1 c 0,0 -0.42,38.15 1.19,41.43 0,0 -9.58,-51.35 -12.96,-52.72 0,0 -7.02,-28.16 -5,-34.19 0,0 6.19,-9.58 3.72,-16.57 0,0 0,-17.16 0,-19.14 0,0 -2.97,-8.67 -7.35,1.63 l -0.34,8.28 c 0,0 -3.66,3.99 -2.89,-6.04 l -0.38,-3.26 c 0,0 4.95,-2.32 3.27,-5.01 0,0 10.69,-4.64 3.97,-6.61 0,0 4.76,-5.59 -4.86,-4.67 0,0 -11.5,7.77 -12.78,12.26 v 0.68 c 0,4.37 -2.06,9.27 -2.06,9.27 0,0 -3,19.27 -0.34,22.95 0,0 1.34,11.58 3.25,12.61 0,0 -3.25,11.92 -0.14,13.53 0,0 6.97,41.18 6.09,46.79 0,0 1.15,50.46 3.21,53.39 0,0 -7.01,-0.22 -4.35,4.65 0,0 8.73,30.85 8.73,34.25 0,0 9.44,40.03 21.21,39.77 0,0 35.37,18.54 37.43,17.89 0,0 -8.16,28.24 -5.67,32.49 0,0 1.95,4.95 0.57,6.66 0,0 -1.68,11.97 0.96,14.28 0,0 -6.87,7.98 -0.28,14.24 0,0 8.67,14.35 14.11,13.67 0,0 5.61,8.6 13.01,3.89 0,0 12.43,1.67 14.05,-1.62 0,0 11.07,0.7 12.49,-7.01 0,0 10.97,-9.22 7.67,-16.63 0,0 2.68,-8.55 0.92,-12.23 0,0 -5.68,-7.6 -3.21,-8.93 0,0 5.59,-4.62 0.57,-8.94 l -4.9,-8.59 c 0,0 -2.15,-3.04 -3.38,-3.04 0,0 -3.81,-9.25 -3.81,-13.26 0,0 0.62,-4.65 3.81,-7.35 0,0 30.32,-14.82 30.32,-18.52 0,0 14.16,-9.31 14.16,-14 0,0 17.76,-39.07 17.76,-45.05 l 1.64,-2.27 c 0,0 0.32,25.15 2.96,25.15 0,0 11.2,19.9 17.87,16.61 0,0 14.69,5.28 14.69,6.69 0,0 1.61,2.2 1.61,5.16"
         style="fill:#ee2139;fill-opacity:1;fill-rule:nonzero;stroke:none"
         id="path16"
         inkscape:connector-curvature="0" /><path
         d="m 3660.92,3600 c -4.4,-1.82 -18.64,-21.66 -18.64,-21.66 -4.18,-1.79 -12.03,-1.2 -12.03,-1.2 -3.72,2.58 -4.08,9.59 -4.08,9.59 3.08,39.19 12.14,75.41 12.14,75.41 3.1,1.31 7.12,-3.35 7.12,-3.35 2.29,-3.13 19.74,-12.09 19.74,-12.09 3.19,-9.79 7.67,-12.11 7.67,-12.11 0.94,-10.11 -11.92,-34.59 -11.92,-34.59 z m 46.48,63.07 c 0,0 -19.32,34.09 -24.08,36.87 0,0 -8.16,10.27 -8.16,14.01 0,0 -14.96,17.75 -17.73,19.45 0,0 -41.69,32.04 -48.67,32.04 0,0 -2.67,22.89 -16.44,17.16 l -2.05,3.05 c 0,0 6.19,4.69 6.19,6.79 l 6.91,14.98 c 0,0 10.03,27.67 -14.09,52.91 0,0 -8.74,6.5 -11.39,6.5 0,0 -5.64,2.66 -13.18,0.68 0,0 -9.59,1.98 -12.31,0 0,0 -6.27,-3.13 -8.24,-2.06 0,0 -10.42,-0.31 -11.44,-11.25 v -3.79 c 0,0 -12.09,-17.73 -11.05,-21.85 0,0 2.42,-3.33 1,-6.51 l -4.06,-9.8 c 0,0 -3.42,-4.09 1.4,-6.51 0,0 1.66,-4.46 0.62,-6.12 l -0.21,-3.42 c 0,0 -1.05,-6.22 0.87,-6.22 0,0 -0.34,-10.9 1.87,-10.9 0,0 -14.22,-2.66 -14.22,-4.43 0,0 -15.45,4.43 -17.26,3.84 0,0 -8.63,2.67 -11.92,1.21 l -14.84,1.79 c 0,0 -43.13,18.72 -50.47,17.62 0,0 -12,3.48 -17.87,9.23 0,0 -25.84,14.35 -47.63,14.35 0,0 -20.29,6.49 -26.84,9.89 0,0 -20.72,6.5 -24.08,6.5 0,0 -19.06,9.56 -24.21,9.56 0,0 -14.11,6.11 -18.94,6.11 0,0 -17.23,6.13 -16.8,1.02 0,0 -1.83,-5.75 11.73,-6.46 l 6.05,-1.7 c 0,0 3.55,-4.47 5.57,-4.47 l -5.57,-8.21 c 0,0 -2.34,-5.08 1.36,-6.78 0,0 4.21,-13.23 11.03,-14 0,0 9.01,0 8.34,3.79 0,0 -2,7.12 1.04,4.4 0,0 7.67,-5.45 22.38,-5.13 0,0 5.84,0.33 11,-3.06 0,0 28.27,-17.69 30.97,-18.47 0,0 15.88,-12.27 27.29,-13.57 0,0 13.96,-2.43 13.96,-4.46 0,0 10.82,-3.78 14.05,-3.78 0,0 32.51,-9.41 32.81,-22.44 0,0 2.38,-8.49 13.11,-9.2 0,0 24.4,-10.23 27.04,-19.43 0,0 5.91,-13.67 12.09,-17.05 0,0 7.01,-17.78 7.4,-31.17 0,0 6.9,-75.76 11.54,-86.72 l 0.42,-0.94 c 4.53,-6.85 -13.07,-21.21 -11.96,-32.42 0,0 -8.14,-136.44 7.77,-169.3 0,0 12.86,-45.06 16.65,-50.49 0,0 3.18,-10.9 1.27,-13.64 0,0 -6.48,-55.01 -0.62,-63.93 l 2,-1.98 c 0,0 -11.3,-6.38 -13.19,-8.23 0,0 -26.7,-5.75 -25.62,-10.48 0,0 -0.65,-13.96 20.85,-14.4 0,0 25.25,2.41 30.35,3.72 0,0 17.69,2.13 23.81,1.05 0,0 27.24,1.79 27.24,8.93 0,0 -0.38,6.13 -2.35,7.5 0,0 -1.68,44.35 -4.87,51.19 0,0 -4.34,20.06 -0.3,29.03 0,0 2.38,81.6 -2.85,91.47 0,0 14.88,-27.31 16.3,-29.03 0,0 -0.42,-24.61 4.1,-33.07 0,0 4.81,-23.6 4.81,-28 0,0 3.38,-57.68 9.88,-67.7 0,0 -1.87,-20.69 4.23,-26.88 0,0 -11.62,-5.37 -12.07,-7.16 0,0 -16.24,-8.19 -8.91,-13.9 0,0 5.83,-10.33 27.53,-9.57 0,0 20.72,1.98 24.73,7.78 0,0 12.48,6.51 17.65,6.51 0,0 15.11,1.62 13,13.6 l -2.99,14.69 2.42,1.04 c 0,0 0.95,7.85 -1.81,11.91 0,0 -5.82,20.52 -6.5,28.42 0,0 -13.35,104.38 -23.34,112.55 0,0 -4.97,8.21 -4.97,16.07 0,0 -0.89,13.53 -3.3,19.49 0,0 -3.12,19.33 -1.46,23.89 0,0 -0.3,11.55 -1,15.31 0,0 0.7,6.81 2.46,12.27 0,0 0.22,52.27 -3.12,60.1 0,0 5.53,7.06 13.35,6.47 0,0 11.77,3.33 11.77,7.22 0,0 4.29,7.45 7.57,9.5 0,0 28.65,23.85 36.51,45.01 l 15.22,26.62 3.65,1.82 c 0,0 -3.95,17.73 -8.18,23.17"
         style="fill:#ee2139;fill-opacity:1;fill-rule:nonzero;stroke:none"
         id="path18"
         inkscape:connector-curvature="0" /><path
         d="m 3802.23,3744.91 c 0,0 -8.59,15.64 -8.4,22.35 0,0 2.64,25.65 2.64,28.16 0,0 9.71,28.22 -20.64,40.28 0,0 -20.08,13.94 -35.24,-4.58 0,0 -16.15,-8.26 -13.02,-13.96 0,0 -3.74,-23.42 -2.05,-26.62 0,0 1.73,-5.65 0.96,-8.17 0,0 -1.85,-12.05 4.29,-16.91 0,0 8.1,-12.84 8.1,-16.81 0,0 4.57,-18.06 13.84,-18.23 l -0.73,-7.72 c 0,0 -16.3,-23.11 -20.06,-35.11 0,0 -5.44,-16.24 -2.63,-28.8 3.01,-12.59 -0.56,0.26 -0.56,0.26 0,0 -1.48,-37.37 -3.44,-49.37 0,0 -2.66,-22.45 -1.46,-34.82 0,0 -0.88,-19.04 1.99,-26.76 0,0 -0.83,-17.15 -1.68,-21.71 0,0 -2.61,-12 0.3,-13.1 0,0 -9.82,-26.83 -11.16,-31.41 0,0 -13.64,-41.11 -11.6,-47.11 0,0 -0.98,-7.67 -2.57,-10.57 0,0 -12.39,-30.46 -12.39,-36.15 0,0 -13.92,-41.67 -14.07,-47.95 0,0 -5.81,-22.25 -5.81,-25.4 0,0 -6.48,-14.59 -11.35,-17.75 0,0 -21.16,-32.21 -21.01,-35.33 0.38,-3.16 0.38,-0.61 0.38,-0.61 l -8.06,-12.53 c 0,0 -2.4,-4.85 -4.86,-5.66 0,0 -38.15,-6.65 -25.04,-17.22 l 34.47,-3.32 c 0,0 13.59,2.31 19.6,-0.57 6.1,-2.93 0.68,-0.97 0.68,-0.97 0,0 35.07,-5.92 41.08,-1.66 0,0 10.82,10.56 8.95,20.29 0,0 1.74,12.84 4.59,19.75 0,0 10.09,20.29 10.39,25.87 0,0 42.57,75.63 42.95,82.78 l 19.52,35.39 c 0,0 2.04,4.04 5.03,-0.83 0,0 25.23,-36.85 30.46,-40.58 0,0 13.26,-17.92 13.26,-20.76 0,0 14.62,-19.73 14.62,-23.14 0,0 13.03,-33.97 21.66,-39.14 0,0 9.35,-13.07 8.1,-22.52 l -5.3,-17.37 -2.33,-8.8 c 0,0 -22.13,1.62 -20.96,-4.9 0,0 -9.07,-7.41 10.9,-9.77 0,0 22.21,-2.8 33.41,0.93 0,0 15.31,8.54 21.05,9.11 0,0 15.57,1.71 17.02,7.71 l 2.08,4.29 c 0,0 11.92,1.43 7.93,11.47 0,0 -14.94,37.98 -23.85,45.9 0,0 -2,7.93 -7.48,14.54 0,0 -32.24,75.02 -42.04,83.53 0,0 -10.07,3.8 -13.64,12.91 0,0 0,6.05 -3.38,9.96 0,0 -4.83,50.52 -7.74,54.55 0,0 -0.19,5.92 -0.19,8.84 v 0.54 c 0,2.55 -0.32,11.39 0.64,15.16 0,0 6.99,17.92 7.61,23.09 0,0 -2.66,31.69 -6.42,35.66 0,0 -2.87,20.51 -6.31,25.09 0,0 7.84,60.53 4.48,72.25 0,0 3.1,85.18 -35.51,94.03"
         style="fill:#ee2139;fill-opacity:1;fill-rule:nonzero;stroke:none"
         id="path20"
         inkscape:connector-curvature="0" /><path
         d="m 1584.55,3211.37 h -176.23 v 365.67 l -220.23,-365.67 h -150.12 v 602.11 h 176.18 v -327.03 l 201.89,327.03 h 168.51 v -602.11"
         style="fill:#363333;fill-opacity:1;fill-rule:nonzero;stroke:none"
         id="path22"
         inkscape:connector-curvature="0" /><path
         d="m 2174.77,3386.43 c 0,-33.17 -7.6,-61.27 -22.74,-84.52 -15.3,-23.25 -35.64,-41.76 -61.21,-55.77 -24.63,-13.34 -53.13,-23.08 -85.37,-29.22 -32.26,-6.17 -66.88,-9.2 -103.86,-9.2 -47.02,0 -89.5,4.46 -127.44,13.24 -37.96,8.92 -73.22,19.32 -105.99,31.24 v 138.38 h 18.9 c 25.58,-14.96 54,-27.81 85.33,-38.35 31.3,-10.6 63.06,-15.95 95.45,-15.95 11.94,0 26.54,0.85 43.65,2.61 17.07,1.6 30.41,4.55 39.96,8.65 14.66,5.72 25.03,12.86 31.17,21.3 6.19,8.32 9.25,19.05 9.25,31.94 0,14.42 -3.44,25.74 -10.2,34.09 -6.87,8.32 -16.18,14.69 -28.18,18.76 -12.06,3.98 -25.83,6.55 -41.53,7.36 -15.73,0.92 -32.73,1.27 -51.24,1.27 h -67.08 v 114.78 h 51.24 c 12.97,0 28.71,0.27 47.12,0.84 18.4,0.44 33.03,2.25 44.08,5.28 13.98,3.85 24.93,9.18 32.77,16.2 7.8,7 11.78,18.19 11.78,33.52 0,10.98 -3.36,19.94 -10.01,27 -6.64,6.92 -15.5,12.46 -26.42,16.59 -9.16,3.34 -19.9,5.96 -32.24,7.65 -12.25,1.74 -25.32,2.64 -38.94,2.64 -24.93,0 -51.58,-4.18 -79.91,-12.35 -28.31,-8.22 -54.05,-18.41 -77.32,-30.7 h -18.98 v 136.21 c 19.43,6.13 49.65,13.56 90.45,22.35 40.75,8.71 80.43,13.06 119.04,13.06 34.52,0 66.25,-2.59 95.34,-7.67 28.97,-5.16 56.2,-14.25 81.96,-27.19 23.91,-12.3 43.31,-28.65 57.85,-49.2 14.71,-20.5 22.04,-45.6 22.04,-75.27 0,-30.49 -9.74,-57.73 -29.18,-82 -19.45,-24.21 -43.27,-40.68 -71.18,-49.23 v -4.57 c 35.51,-9.89 63.02,-26.34 82.44,-49.48 19.45,-23.08 29.2,-51.15 29.2,-84.29"
         style="fill:#363333;fill-opacity:1;fill-rule:nonzero;stroke:none"
         id="path24"
         inkscape:connector-curvature="0" /><path
         d="m 2724.97,3386.43 c 0,-33.17 -7.62,-61.27 -22.69,-84.52 -15.16,-23.25 -35.8,-41.76 -61.32,-55.77 -24.55,-13.34 -52.94,-23.08 -85.33,-29.22 -32.26,-6.17 -66.86,-9.2 -103.67,-9.2 -47.12,0 -89.63,4.46 -127.59,13.24 -38,8.92 -73.32,19.32 -106.01,31.24 v 138.38 h 18.96 c 25.61,-14.96 53.92,-27.81 85.35,-38.35 31.18,-10.6 62.98,-15.95 95.43,-15.95 12.01,0 26.42,0.85 43.61,2.61 17.03,1.6 30.48,4.55 39.83,8.65 14.73,5.72 25.21,12.86 31.41,21.3 6.04,8.32 9.14,19.05 9.14,31.94 0,14.42 -3.42,25.74 -10.24,34.09 -6.87,8.32 -16.11,14.69 -28.23,18.76 -11.86,3.98 -25.69,6.55 -41.46,7.36 -15.64,0.92 -32.82,1.27 -51.24,1.27 h -66.99 v 114.78 h 51.11 c 13.05,0 28.74,0.27 47.23,0.84 18.4,0.44 33.04,2.25 43.97,5.28 14.09,3.85 24.97,9.18 32.83,16.2 7.83,7 11.82,18.19 11.82,33.52 0,10.98 -3.33,19.94 -9.97,27 -6.8,6.92 -15.53,12.46 -26.35,16.59 -9.44,3.34 -20.11,5.96 -32.41,7.65 -12.26,1.74 -25.27,2.64 -38.92,2.64 -24.88,0 -51.58,-4.18 -79.85,-12.35 -28.45,-8.22 -54.15,-18.41 -77.42,-30.7 h -18.91 v 136.21 c 19.4,6.13 49.58,13.56 90.38,22.35 40.85,8.71 80.51,13.06 119.17,13.06 34.43,0 66.23,-2.59 95.26,-7.67 28.94,-5.16 56.36,-14.25 81.91,-27.19 23.93,-12.3 43.27,-28.65 58,-49.2 14.51,-20.5 21.89,-45.6 21.89,-75.27 0,-30.49 -9.72,-57.73 -29.12,-82 -19.44,-24.21 -43.25,-40.68 -71.24,-49.23 v -4.57 c 35.51,-9.89 63.08,-26.34 82.48,-49.48 19.41,-23.08 29.18,-51.15 29.18,-84.29"
         style="fill:#363333;fill-opacity:1;fill-rule:nonzero;stroke:none"
         id="path26"
         inkscape:connector-curvature="0" /><path
         d="m 3139.47,3373.66 v 119.85 c -30.41,-3.06 -55.06,-5.67 -73.68,-7.94 -18.89,-2.18 -37.19,-6.56 -55.41,-12.92 -15.68,-5.56 -27.92,-13.81 -36.62,-25.01 -8.82,-11.04 -13.11,-25.76 -13.11,-44.26 0,-26.99 7.29,-45.48 21.81,-55.56 14.53,-10.1 35.87,-15.16 64.2,-15.16 15.73,0 31.9,3.62 48.25,10.78 16.49,7.22 31.22,17.26 44.56,30.22 z m 0,-89.16 c -12.3,-10.24 -23.31,-19.4 -33.02,-27.64 -9.78,-8.19 -22.81,-16.41 -39.11,-24.64 -16.19,-7.86 -31.75,-13.79 -47.05,-17.89 -15.11,-4.08 -36.37,-6.06 -63.64,-6.06 -50.96,0 -93.15,17.02 -126.81,51.18 -33.6,34.13 -50.56,77.17 -50.56,129.06 0,42.72 8.48,77.16 25.65,103.54 17.19,26.27 41.7,47.1 73.73,62.45 32.47,15.73 71.32,26.66 116.34,32.78 45.07,6.22 93.53,10.99 145.52,14.38 v 3.07 c 0,31.73 -11.76,53.69 -35.18,65.85 -23.31,12.17 -58.44,18.17 -105.24,18.17 -21.09,0 -45.82,-3.85 -74.28,-11.56 -28.23,-7.63 -56.07,-17.48 -82.91,-29.44 h -15.49 v 138.84 c 17.78,5.15 46.52,11.2 86.13,18.23 39.54,7 79.58,10.51 119.91,10.51 99.02,0 171.18,-16.51 216.28,-49.49 45.33,-32.97 68.07,-83.26 68.07,-150.91 v -405.89 h -178.34 v 75.46"
         style="fill:#363333;fill-opacity:1;fill-rule:nonzero;stroke:none"
         id="path28"
         inkscape:connector-curvature="0" /><path
         d="m 817.801,3519.75 c 0,37.46 -9.008,67.93 -27.457,91.82 -18.364,23.72 -43.719,38.66 -76.043,44.74 v -281.92 c 37.426,8.44 64.043,24.59 79.847,48.32 15.875,23.74 23.653,56.23 23.653,97.04 z M 572.094,3374.39 v 281.92 c -33.664,-6.31 -59.211,-21.4 -76.926,-45.2 -17.723,-23.76 -26.543,-54.23 -26.543,-91.36 0,-40.36 8.215,-72.72 24.855,-97.04 16.567,-24.24 42.758,-40.42 78.614,-48.32 z m 392.484,142.97 c 0,-71.44 -23.285,-127.97 -69.531,-169.46 -46.449,-41.57 -106.692,-65.67 -180.746,-72.3 v -64.23 H 572.094 v 64.23 c -74.055,6.63 -134.297,30.37 -180.672,71.41 -46.363,41.04 -69.52,97.83 -69.52,170.35 0,72.2 22.508,128.27 67.684,168.07 45.066,39.83 105.922,63.19 182.508,70.15 v 59.75 h 142.207 v -59.75 c 74.281,-5.69 134.691,-28.48 180.98,-68.76 46.129,-40.24 69.297,-96.71 69.297,-169.46"
         style="fill:#363333;fill-opacity:1;fill-rule:nonzero;stroke:none"
         id="path30"
         inkscape:connector-curvature="0" /><path
         d="m 113.469,2961.92 c -7.164,-3.16 -20.8713,-6.14 -38.1526,-6.14 -34.3594,0 -67.23827,18.43 -67.23827,60.38 0,35.13 27.18357,61.8 71.87887,61.8 18.1289,0 28.668,-3.35 33.094,-5.26 l -3.375,-7.02 c -7.164,2.98 -17.4963,5.09 -29.5158,5.09 -38.3555,0 -61.7618,-20.73 -61.7618,-54.78 0,-32.11 22.1368,-52.85 60.086,-52.85 12.2226,0 24.0276,2.11 32.0316,5.46 l 2.953,-6.68"
         style="fill:#ee2139;fill-opacity:1;fill-rule:nonzero;stroke:none"
         id="path32"
         inkscape:connector-curvature="0" /><path
         d="m 212.77,3016.53 h -56.907 v -51.8 h 63.649 v -7.02 h -73.563 v 118.32 h 70.192 v -7.02 h -60.278 v -45.48 h 56.907 v -7"
         style="fill:#ee2139;fill-opacity:1;fill-rule:nonzero;stroke:none"
         id="path34"
         inkscape:connector-curvature="0" /><path
         d="m 262.531,3015.65 c 5.059,-1.23 11.168,-1.76 18.117,-1.76 25.297,0 40.688,10.35 40.688,29.15 0,18.6 -16.231,26.85 -38.785,26.85 -9.27,0 -16.231,-0.71 -20.02,-1.42 z m -9.914,58.96 c 8.227,1.42 18.344,2.3 30.352,2.3 16.867,0 29.722,-3.52 37.531,-10.01 6.742,-5.43 10.953,-13.17 10.953,-23.18 0,-10.18 -3.586,-17.72 -9.902,-23.52 -9.067,-8.76 -24.457,-13.34 -41.738,-13.34 -6.329,0 -12.223,0.17 -17.282,1.4 v -50.55 h -9.914 v 116.9"
         style="fill:#ee2139;fill-opacity:1;fill-rule:nonzero;stroke:none"
         id="path36"
         inkscape:connector-curvature="0" /><path
         d="m 376.805,2964.73 c 4.207,-0.7 10.117,-0.87 17.484,-0.87 21.719,0 42.168,6.48 42.168,26.68 0,18.6 -19.184,26.67 -41.738,26.67 h -17.914 z m 0,59.34 h 20.855 c 20.453,0 33.309,10.01 33.309,23.18 0,16.67 -14.961,22.64 -36.047,22.64 -9.484,0 -14.961,-0.54 -18.117,-1.23 z m -9.914,50.37 c 7.797,1.59 17.914,2.47 28.461,2.47 17.703,0 29.293,-3.16 37.304,-9.66 5.692,-4.92 8.645,-11.24 8.645,-19.49 0,-12.12 -10.332,-22.3 -24.457,-26.51 v -0.34 c 11.804,-2.28 29.937,-10.89 29.937,-30.2 0,-9.65 -4.008,-17.02 -10.539,-22.65 -9.277,-8.07 -24.66,-11.23 -44.691,-11.23 -10.957,0 -19.172,0.54 -24.66,1.05 v 116.56"
         style="fill:#ee2139;fill-opacity:1;fill-rule:nonzero;stroke:none"
         id="path38"
         inkscape:connector-curvature="0" /><path
         d="m 491.484,3076.03 v -58.82 c 0,-18.6 -0.214,-32.11 -1.687,-48.09 l 0.418,-0.17 c 6.961,11.4 15.394,22.29 26.984,37.2 l 55.227,69.88 h 9.484 v -118.32 h -9.902 v 59.87 c 0,19.65 0.207,32.46 1.472,47.05 l -0.632,0.17 c -7.164,-12.12 -17.285,-24.58 -27.821,-38.09 l -54.175,-69 h -9.067 v 118.32 h 9.699"
         style="fill:#ee2139;fill-opacity:1;fill-rule:nonzero;stroke:none"
         id="path40"
         inkscape:connector-curvature="0" /><path
         d="m 720.836,2961.92 c -7.164,-3.16 -20.871,-6.14 -38.152,-6.14 -34.36,0 -67.239,18.43 -67.239,60.38 0,35.13 27.184,61.8 71.879,61.8 18.129,0 28.668,-3.35 33.094,-5.26 l -3.375,-7.02 c -7.164,2.98 -17.496,5.09 -29.504,5.09 -38.367,0 -61.773,-20.73 -61.773,-54.78 0,-32.11 22.136,-52.85 60.074,-52.85 12.234,0 24.039,2.11 32.051,5.46 l 2.945,-6.68"
         style="fill:#ee2139;fill-opacity:1;fill-rule:nonzero;stroke:none"
         id="path42"
         inkscape:connector-curvature="0" /><path
         d="m 867.996,2970.54 c 25.297,1.39 48.699,14.56 48.699,46.33 0,33.88 -24.027,45.99 -48.699,46.7 z m -10.117,93.03 c -22.125,-0.71 -48.688,-12.28 -48.688,-46.87 0,-31.08 22.77,-44.25 48.688,-46.16 z m 10.332,17.19 v -10.87 c 29.719,-0.54 59.234,-15.62 59.234,-53.19 0,-37.74 -30.148,-51.45 -59.652,-52.5 v -11.24 h -10.117 v 11.24 c -28.883,1.42 -59.024,13.87 -59.024,51.96 0,39.51 32.039,52.85 59.442,53.73 v 10.87 h 10.117"
         style="fill:#2c3b45;fill-opacity:1;fill-rule:nonzero;stroke:none"
         id="path44"
         inkscape:connector-curvature="0" /><path
         d="m 970.68,3076.03 v -58.82 c 0,-18.6 -0.215,-32.11 -1.688,-48.09 l 0.418,-0.17 c 6.961,11.4 15.395,22.29 26.985,37.2 l 55.225,69.88 h 9.49 v -118.32 h -9.91 v 59.87 c 0,19.65 0.21,32.46 1.48,47.05 l -0.64,0.17 c -7.16,-12.12 -17.28,-24.58 -27.82,-38.09 l -54.173,-69 h -9.067 v 118.32 h 9.7"
         style="fill:#2c3b45;fill-opacity:1;fill-rule:nonzero;stroke:none"
         id="path46"
         inkscape:connector-curvature="0" /><path
         d="m 1113.82,3076.03 v -51.96 h 78.41 v 51.96 h 9.91 v -118.32 h -9.91 v 59.16 h -78.41 v -59.16 h -9.91 v 118.32 h 9.91"
         style="fill:#2c3b45;fill-opacity:1;fill-rule:nonzero;stroke:none"
         id="path48"
         inkscape:connector-curvature="0" /><path
         d="m 1315.15,3006.15 -17.29,39.51 c -3.37,8.25 -5.26,14.22 -7.37,20.9 h -0.43 c -2.1,-6.85 -4.42,-13 -7.37,-20.56 l -17.49,-39.85 z m -53.12,-7 -17.5,-41.44 h -10.32 l 51.43,118.32 h 9.69 l 51.23,-118.32 h -10.33 l -17.92,41.44 h -56.28"
         style="fill:#2c3b45;fill-opacity:1;fill-rule:nonzero;stroke:none"
         id="path50"
         inkscape:connector-curvature="0" /><path
         d="m 1386.84,3076.03 v -51.96 h 78.41 v 51.96 h 9.9 v -118.32 h -9.9 v 59.16 h -78.41 v -59.16 h -9.92 v 118.32 h 9.92"
         style="fill:#2c3b45;fill-opacity:1;fill-rule:nonzero;stroke:none"
         id="path52"
         inkscape:connector-curvature="0" /><path
         d="m 1614.3,2961.92 c -7.17,-3.16 -20.87,-6.14 -38.15,-6.14 -34.37,0 -67.24,18.43 -67.24,60.38 0,35.13 27.18,61.8 71.88,61.8 18.13,0 28.66,-3.35 33.09,-5.26 l -3.37,-7.02 c -7.17,2.98 -17.5,5.09 -29.52,5.09 -38.36,0 -61.76,-20.73 -61.76,-54.78 0,-32.11 22.14,-52.85 60.08,-52.85 12.23,0 24.03,2.11 32.03,5.46 l 2.96,-6.68"
         style="fill:#2c3b45;fill-opacity:1;fill-rule:nonzero;stroke:none"
         id="path54"
         inkscape:connector-curvature="0" /><path
         d="m 1656.47,3076.03 v -58.82 c 0,-18.6 -0.22,-32.11 -1.69,-48.09 l 0.42,-0.17 c 6.96,11.4 15.39,22.29 26.98,37.2 l 55.23,69.88 h 9.48 v -118.32 h -9.9 v 59.87 c 0,19.65 0.2,32.46 1.47,47.05 l -0.63,0.17 c -7.17,-12.12 -17.28,-24.58 -27.82,-38.09 l -54.18,-69 h -9.06 v 118.32 h 9.7"
         style="fill:#2c3b45;fill-opacity:1;fill-rule:nonzero;stroke:none"
         id="path56"
         inkscape:connector-curvature="0" /><path
         d="m 1799.62,3015.65 c 5.06,-1.23 11.17,-1.76 18.12,-1.76 25.3,0 40.69,10.35 40.69,29.15 0,18.6 -16.23,26.85 -38.79,26.85 -9.27,0 -16.23,-0.71 -20.02,-1.42 z m -9.91,58.96 c 8.22,1.42 18.34,2.3 30.35,2.3 16.86,0 29.72,-3.52 37.53,-10.01 6.74,-5.43 10.96,-13.17 10.96,-23.18 0,-10.18 -3.59,-17.72 -9.91,-23.52 -9.06,-8.76 -24.46,-13.34 -41.74,-13.34 -6.32,0 -12.22,0.17 -17.28,1.4 v -50.55 h -9.91 v 116.9"
         style="fill:#2c3b45;fill-opacity:1;fill-rule:nonzero;stroke:none"
         id="path58"
         inkscape:connector-curvature="0" /><path
         d="m 1902.5,3015.99 c 0,-26.68 18.55,-53.19 52.27,-53.19 33.73,0 52.49,25.46 52.49,54.78 0,24.92 -16.44,53.36 -52.06,53.36 -36.04,0 -52.7,-27.39 -52.7,-54.95 z m 115.1,2.1 c 0,-41.78 -30.57,-62.31 -63.45,-62.31 -34.99,0 -61.97,23.01 -61.97,59.87 0,38.79 28.03,62.31 63.65,62.31 35.84,0 61.77,-23.17 61.77,-59.87"
         style="fill:#2c3b45;fill-opacity:1;fill-rule:nonzero;stroke:none"
         id="path60"
         inkscape:connector-curvature="0" /><path
         d="m 2061.25,2964.73 c 4.21,-0.7 10.12,-0.87 17.49,-0.87 21.71,0 42.15,6.48 42.15,26.68 0,18.6 -19.17,26.67 -41.73,26.67 h -17.91 z m 0,59.34 h 20.87 c 20.44,0 33.29,10.01 33.29,23.18 0,16.67 -14.96,22.64 -36.04,22.64 -9.49,0 -14.96,-0.54 -18.12,-1.23 z m -9.92,50.37 c 7.8,1.59 17.92,2.47 28.47,2.47 17.7,0 29.3,-3.16 37.3,-9.66 5.69,-4.92 8.65,-11.24 8.65,-19.49 0,-12.12 -10.34,-22.3 -24.46,-26.51 v -0.34 c 11.8,-2.28 29.94,-10.89 29.94,-30.2 0,-9.65 -4.01,-17.02 -10.54,-22.65 -9.28,-8.07 -24.66,-11.23 -44.69,-11.23 -10.96,0 -19.19,0.54 -24.67,1.05 v 116.56"
         style="fill:#2c3b45;fill-opacity:1;fill-rule:nonzero;stroke:none"
         id="path62"
         inkscape:connector-curvature="0" /><path
         d="m 2236.22,3006.15 -17.28,39.51 c -3.38,8.25 -5.28,14.22 -7.38,20.9 h -0.43 c -2.11,-6.85 -4.43,-13 -7.38,-20.56 l -17.49,-39.85 z m -53.13,-7 -17.49,-41.44 h -10.33 l 51.43,118.32 h 9.7 l 51.22,-118.32 h -10.33 l -17.91,41.44 h -56.29"
         style="fill:#2c3b45;fill-opacity:1;fill-rule:nonzero;stroke:none"
         id="path64"
         inkscape:connector-curvature="0" /><path
         d="m 2307.91,3076.03 v -51.96 h 78.41 v 51.96 h 9.91 v -118.32 h -9.91 v 59.16 h -78.41 v -59.16 h -9.9 v 118.32 h 9.9"
         style="fill:#2c3b45;fill-opacity:1;fill-rule:nonzero;stroke:none"
         id="path66"
         inkscape:connector-curvature="0" /><path
         d="m 2448.94,3076.03 v -58.82 c 0,-18.6 -0.21,-32.11 -1.7,-48.09 l 0.43,-0.17 c 6.96,11.4 15.39,22.29 26.99,37.2 l 55.23,69.88 h 9.49 v -118.32 h -9.92 v 59.87 c 0,19.65 0.21,32.46 1.48,47.05 l -0.63,0.17 c -7.17,-12.12 -17.29,-24.58 -27.84,-38.09 l -54.15,-69 h -9.07 v 118.32 h 9.69"
         style="fill:#2c3b45;fill-opacity:1;fill-rule:nonzero;stroke:none"
         id="path68"
         inkscape:connector-curvature="0" /><path
         d="m 2644.79,3068.47 c -3.59,0.71 -10.74,1.59 -20.23,1.59 -20.46,0 -38.59,-6.14 -38.59,-25.11 0,-16.33 17.08,-26.15 40.69,-26.15 7.39,0 14.14,0 18.13,0.18 z m -75.89,-110.76 c 1.69,2.81 3.37,5.8 4.85,9.13 6.34,13.68 10.33,31.6 22.34,41.95 3.59,2.82 7.8,5.1 12.23,5.98 v 0.34 c -18.97,2.47 -32.46,13.88 -32.46,29.32 0,10.01 4.42,18.09 12.03,23.36 7.58,5.43 19.59,9.12 37.1,9.12 9.68,0 21.07,-0.88 29.7,-2.47 v -116.73 h -9.9 v 54.24 h -17.29 c -10.33,0 -17.7,-1.57 -23.4,-6.66 -10.33,-8.95 -14.54,-27.56 -20.23,-39.67 -1.27,-2.82 -2.54,-5.27 -4.21,-7.91 h -10.76"
         style="fill:#2c3b45;fill-opacity:1;fill-rule:nonzero;stroke:none"
         id="path70"
         inkscape:connector-curvature="0" /><path
         d="m 2787.73,3071.29 c -13.49,0 -20.86,-9.65 -20.86,-20.37 0,-10.01 5.89,-17.38 11.58,-23.87 16.86,7.37 28.68,14.74 28.68,26.68 0,8.43 -5.69,17.56 -19.18,17.56 z m -3.59,-108.66 c 14.55,0 26.79,5.61 35,13.51 -8.21,8.08 -26.55,24.75 -44.68,42.49 -9.07,-4.57 -22.77,-13.34 -22.77,-28.81 0,-15.78 13.7,-27.19 32.26,-27.19 z m 56.29,-4.92 c -4.64,3.87 -8.85,7.74 -15.6,13.51 -14.33,-11.58 -28.25,-15.44 -43.2,-15.44 -23.2,0 -40.06,14.56 -40.06,32.99 0,16.52 12.22,27.22 28.25,34.95 v 0.52 c -8.02,8.96 -12.44,17.55 -12.44,25.8 0,14.22 11.6,27.92 32.05,27.92 15.17,0 27.17,-9.12 27.17,-23.52 0,-12.65 -9.06,-22.3 -33.08,-32.31 v -0.51 c 14.33,-14.05 30.76,-29.49 41.31,-39.51 6.96,8.77 11.39,20.54 14.54,38.09 h 9.71 c -3.8,-18.95 -9.28,-33.34 -18.56,-43 7.18,-6.15 14.14,-12.12 22.56,-19.49 h -12.65"
         style="fill:#2c3b45;fill-opacity:1;fill-rule:nonzero;stroke:none"
         id="path72"
         inkscape:connector-curvature="0" /><path
         d="m 2943.11,3076.03 v -58.82 c 0,-18.6 -0.22,-32.11 -1.7,-48.09 l 0.43,-0.17 c 6.96,11.4 15.38,22.29 26.98,37.2 l 55.23,69.88 h 9.5 v -118.32 h -9.93 v 59.87 c 0,19.65 0.22,32.46 1.49,47.05 l -0.63,0.17 c -7.17,-12.12 -17.29,-24.58 -27.84,-38.09 l -54.15,-69 h -9.07 v 118.32 h 9.69"
         style="fill:#2c3b45;fill-opacity:1;fill-rule:nonzero;stroke:none"
         id="path74"
         inkscape:connector-curvature="0" /><path
         d="m 3086.26,3076.03 v -51.96 h 78.41 v 51.96 h 9.91 v -118.32 h -9.91 v 59.16 h -78.41 v -59.16 h -9.9 v 118.32 h 9.9"
         style="fill:#2c3b45;fill-opacity:1;fill-rule:nonzero;stroke:none"
         id="path76"
         inkscape:connector-curvature="0" /><path
         d="m 3227.51,2964.73 c 4.21,-0.7 10.12,-0.87 17.48,-0.87 21.72,0 42.17,6.48 42.17,26.68 0,18.6 -19.18,26.67 -41.74,26.67 h -17.91 z m 0,59.34 h 20.86 c 20.45,0 33.32,10.01 33.32,23.18 0,16.67 -14.98,22.64 -36.05,22.64 -9.5,0 -14.97,-0.54 -18.13,-1.23 z m -9.91,50.37 c 7.8,1.59 17.92,2.47 28.45,2.47 17.72,0 29.3,-3.16 37.31,-9.66 5.69,-4.92 8.64,-11.24 8.64,-19.49 0,-12.12 -10.31,-22.3 -24.45,-26.51 v -0.34 c 11.82,-2.28 29.95,-10.89 29.95,-30.2 0,-9.65 -4.02,-17.02 -10.55,-22.65 -9.28,-8.07 -24.66,-11.23 -44.68,-11.23 -10.98,0 -19.19,0.54 -24.67,1.05 v 116.56"
         style="fill:#2c3b45;fill-opacity:1;fill-rule:nonzero;stroke:none"
         id="path78"
         inkscape:connector-curvature="0" /><path
         d="m 3399.3,3016.53 h -56.91 v -51.8 h 63.65 v -7.02 h -73.55 v 118.32 h 70.18 v -7.02 h -60.28 v -45.48 h 56.91 v -7"
         style="fill:#2c3b45;fill-opacity:1;fill-rule:nonzero;stroke:none"
         id="path80"
         inkscape:connector-curvature="0" /><path
         d="m 3535.28,2961.92 c -7.15,-3.16 -20.86,-6.14 -38.15,-6.14 -34.35,0 -67.24,18.43 -67.24,60.38 0,35.13 27.19,61.8 71.88,61.8 18.13,0 28.65,-3.35 33.1,-5.26 l -3.39,-7.02 c -7.16,2.98 -17.49,5.09 -29.5,5.09 -38.37,0 -61.76,-20.73 -61.76,-54.78 0,-32.11 22.13,-52.85 60.06,-52.85 12.23,0 24.04,2.11 32.06,5.46 l 2.94,-6.68"
         style="fill:#2c3b45;fill-opacity:1;fill-rule:nonzero;stroke:none"
         id="path82"
         inkscape:connector-curvature="0" /><path
         d="m 3604.23,3069.01 h -46.37 v 7.02 h 102.87 v -7.02 h -46.38 v -111.3 h -10.12 v 111.3"
         style="fill:#2c3b45;fill-opacity:1;fill-rule:nonzero;stroke:none"
         id="path84"
         inkscape:connector-curvature="0" /><path
         d="m 3693.62,3076.03 v -58.82 c 0,-18.6 -0.21,-32.11 -1.67,-48.09 l 0.4,-0.17 c 6.96,11.4 15.38,22.29 26.98,37.2 l 55.23,69.88 h 9.5 v -118.32 h -9.93 v 59.87 c 0,19.65 0.22,32.46 1.49,47.05 l -0.63,0.17 c -7.17,-12.12 -17.29,-24.58 -27.84,-38.09 l -54.15,-69 h -9.07 v 118.32 h 9.69"
         style="fill:#2c3b45;fill-opacity:1;fill-rule:nonzero;stroke:none"
         id="path86"
         inkscape:connector-curvature="0" /><path
         d="m 3836.78,3076.03 v -111.3 h 74.6 v 111.3 h 9.93 v -111.3 h 11.58 l -1.27,-34.75 h -8.42 l -0.84,27.73 h -95.49 v 118.32 h 9.91"
         style="fill:#2c3b45;fill-opacity:1;fill-rule:nonzero;stroke:none"
         id="path88"
         inkscape:connector-curvature="0" /><path
         d="m 3976.97,3076.03 v -58.82 c 0,-18.6 -0.22,-32.11 -1.68,-48.09 l 0.41,-0.17 c 6.96,11.4 15.38,22.29 26.98,37.2 l 55.23,69.88 h 9.5 v -118.32 h -9.93 v 59.87 c 0,19.65 0.22,32.46 1.48,47.05 l -0.62,0.17 c -7.18,-12.12 -17.29,-24.58 -27.84,-38.09 l -54.16,-69 h -9.06 v 118.32 h 9.69"
         style="fill:#2c3b45;fill-opacity:1;fill-rule:nonzero;stroke:none"
         id="path90"
         inkscape:connector-curvature="0" /><path
         d="m 4145.17,3099.38 c 1.27,-4.57 3.39,-10.89 15.19,-10.89 11.6,0 13.7,5.8 14.76,10.89 h 9.28 c -0.65,-9.67 -7.18,-17.2 -24.47,-17.2 -16.65,0 -23.4,7.53 -24.02,17.2 z m -25.28,-23.35 v -58.82 c 0,-18.6 -0.22,-32.11 -1.7,-48.09 l 0.43,-0.17 c 6.96,11.4 15.38,22.29 26.98,37.2 l 55.23,69.88 h 9.49 v -118.32 h -9.92 v 59.87 c 0,19.65 0.21,32.46 1.48,47.05 l -0.62,0.17 c -7.18,-12.12 -17.29,-24.58 -27.84,-38.09 l -54.16,-69 h -9.06 v 118.32 h 9.69"
         style="fill:#2c3b45;fill-opacity:1;fill-rule:nonzero;stroke:none"
         id="path92"
         inkscape:connector-curvature="0" /><path
         d="m 3231.35,1285.85 c 0,-109.24 -88.56,-197.8 -197.8,-197.8 -109.24,0 -197.8,88.56 -197.8,197.8 0,109.24 88.56,197.8 197.8,197.8 109.24,0 197.8,-88.56 197.8,-197.8"
         style="fill:#363333;fill-opacity:1;fill-rule:nonzero;stroke:none"
         id="path94"
         inkscape:connector-curvature="0" /><path
         d="m 2553.61,1567.78 c 0,-233.28 -189.11,-422.39 -422.38,-422.39 -233.28,0 -422.39,189.11 -422.39,422.39 0,233.27 189.11,422.38 422.39,422.38 233.27,0 422.38,-189.11 422.38,-422.38"
         style="fill:#ee2139;fill-opacity:1;fill-rule:nonzero;stroke:none"
         id="path96"
         inkscape:connector-curvature="0" /><g
         id="g98"
         transform="scale(10)"><text
           transform="matrix(1,0,0,-1,191.315,80.3262)"
           style="font-variant:normal;font-weight:normal;font-size:15.75080013px;font-family:MyriadPro;-inkscape-font-specification:MyriadPro-Regular;writing-mode:lr-tb;fill:#211b19;fill-opacity:1;fill-rule:nonzero;stroke:none"
           id="text104"><tspan
             x="0 9.1827164 17.262877 25.343037 33.422272"
             y="0"
             sodipodi:role="line"
             id="tspan100">ﬀ3333</tspan><tspan
             x="92.260201 100.34036 108.42052 116.49927 124.57942 132.65959"
             y="-8"
             sodipodi:role="line"
             id="tspan102">333333</tspan></text>
</g><g
         id="g106"
         transform="scale(10)"><text
           transform="matrix(0.903269,0,0,-1,16.5898,11.0398)"
           style="font-variant:normal;font-weight:900;font-size:36px;font-family:Arial;-inkscape-font-specification:Arial-Black;writing-mode:lr-tb;fill:#ee2139;fill-opacity:1;fill-rule:nonzero;stroke:none"
           id="text110"><tspan
             x="0 30.163864 54.175865 79.839966 102.19907 120.48065 145.89833 157.90437 181.74034 207.50993 229.97499 241.98105 265.99216 291.41095 315.82635 341.49045 365.50244 389.51355"
             y="0"
             sodipodi:role="line"
             id="tspan108">Деньги для бизнеса</tspan></text>
</g></g></g></svg>